<svg width="134" height="167" viewBox="0 0 134 167" fill="none" xmlns="http://www.w3.org/2000/svg">
<path fill-rule="evenodd" clip-rule="evenodd" d="M63.6864 118.039C90.3801 118.039 112.02 96.3992 112.02 69.7054C112.02 43.0116 90.3801 21.3721 63.6864 21.3721C36.9926 21.3721 15.353 43.0116 15.353 69.7054C15.353 96.3992 36.9926 118.039 63.6864 118.039Z" fill="#EDE8E2" stroke="#8B9D83" stroke-width="4.83333"/>
<path fill-rule="evenodd" clip-rule="evenodd" d="M63.6864 113.206C63.6864 113.206 83.0197 97.3879 83.0197 69.7061C83.0197 42.0242 63.6864 26.2061 63.6864 26.2061C63.6864 26.2061 44.353 42.0242 44.353 69.7061C44.353 97.3879 63.6864 113.206 63.6864 113.206Z" stroke="#8B9D83" stroke-width="4.83333"/>
<path d="M17.7697 55.2054H109.603" stroke="#8B9D83" stroke-width="4.83333" stroke-linecap="round"/>
<path d="M17.7697 84.2054H109.603" stroke="#8B9D83" stroke-width="4.83333" stroke-linecap="round"/>
<path d="M6.82373 92.1375C6.82373 90.0234 8.53757 88.3096 10.6517 88.3096H57.5443C59.6584 88.3096 61.3723 90.0234 61.3723 92.1375V123.878C61.3723 125.992 59.6584 127.706 57.5443 127.706H10.6517C8.53756 127.706 6.82373 125.992 6.82373 123.878V92.1375Z" fill="#306838"/>
<path fill-rule="evenodd" clip-rule="evenodd" d="M52.7179 93.8844C53.8231 93.2893 55.2015 93.7028 55.7966 94.808C56.3917 95.9133 55.9782 97.2917 54.873 97.8868L35.1749 108.493C34.5022 108.856 33.6925 108.856 33.0198 108.493L13.3217 97.8868C12.2165 97.2917 11.803 95.9133 12.3981 94.808C12.9932 93.7028 14.3716 93.2893 15.4768 93.8844L34.0973 103.911L52.7179 93.8844Z" fill="white"/>
</svg>
