<svg width="426" height="757" viewBox="0 0 426 757" fill="none" xmlns="http://www.w3.org/2000/svg">
<g opacity="0.36" clip-path="url(#clip0_158_1995)">
<path d="M85.0779 683.876C82.9826 689.365 80.0376 694.413 77.3444 699.807C76.9807 704.039 76.5696 708.569 76.2059 712.8C43.4576 712.515 11.1351 709.541 -20.6342 701.139C-53.2532 692.296 -88.3934 691.632 -119.468 676.907C-122.615 675.49 -125.714 673.773 -128.813 672.057C-134.511 675.137 -143.857 670.287 -142.328 662.564C-140.751 654.542 -136.797 645.058 -134.953 639.223C-131.896 629.598 -128.54 620.019 -125.436 610.095C-120.881 594.886 -111.937 580.984 -103.339 567.335C-116.292 571.717 -129.089 577.042 -141.476 583.658C-152.825 589.52 -164.144 599.062 -179.267 599.731C-180.653 600.737 -181.692 601.491 -183.077 602.497C-198.121 563.964 -204.901 519.694 -222.165 483.567C-226.269 474.645 -227.32 467.739 -228.591 458.347C-230.066 448.31 -233.178 438.932 -234.055 428.99C-235.715 408.508 -241.498 388.904 -241.867 368.013C-242.194 358.464 -245.054 349.433 -245.082 339.932C-245.156 330.729 -242.194 321.701 -240.774 312.735C-239.558 303.125 -240.388 292.883 -238.826 283.021C-237.453 274.354 -233.437 266.412 -230.617 258.281C-229.498 255.088 -225.674 254.162 -222.48 255.281C-222.29 254.085 -222.148 253.188 -221.959 251.993C-220.3 235.712 -217.43 221.462 -212.23 206.048C-201.642 174.026 -185.923 142.51 -163.739 116.613C-153.978 105.292 -143.224 93.5158 -130.6 85.4056C-117.283 76.7922 -97.1864 75.6862 -81.7316 72.9259C-62.4524 69.2396 -44.2768 70.5865 -25.0473 73.0195C-16.3295 74.0939 -7.45469 76.1122 1.45245 75.9912C11.0049 75.666 20.495 73.7992 29.7959 73.1278C47.7522 71.9891 63.8073 63.5031 80.9464 59.7842C99.7223 55.4054 119.632 49.6744 138.767 52.7051C171.906 58.2602 205.196 82.2206 232.224 101.207C244.086 109.519 256.088 122.755 265.038 133.976C276.504 148.659 289.497 161.439 302.742 174.566C309.365 181.129 315.593 188.243 321.476 195.608C320.091 196.614 318.658 197.919 317.273 198.925C314.896 200.387 312.519 201.849 310.142 203.31C303.199 212.32 293.14 217.774 284.089 224.612C282.609 226.215 281.428 227.866 280.247 229.518C278.468 231.074 276.736 232.331 274.958 233.888C274.706 233.542 274.108 233.447 273.856 233.101C268.614 237.172 263.325 241.543 258.382 245.661C258.633 246.008 258.885 246.354 259.436 246.747C255.925 249.561 252.415 252.375 248.605 255.142C248.306 255.094 248.353 254.796 248.054 254.748C245.536 257.106 243.316 259.512 241.096 261.918C234.688 269.481 226.77 274.967 219.009 281.396C212.334 286.773 206.713 293.235 199.991 298.91C197.173 301.221 171.262 321.626 168.163 319.909C170.963 321.578 181.524 316.818 185.05 315.844C193.344 313.788 200.096 311.794 207.982 308.447C223.407 302.006 241.662 300.915 257.904 297.054C266.198 294.997 274.318 295.977 282.518 294.519C290.717 293.06 298.854 290.06 307.353 288.649C317.74 286.924 329.859 283.942 341.3 283.303C343.236 282.69 345.518 281.826 347.454 281.214C351.278 280.288 355.102 279.362 358.927 278.436C359.445 280.969 359.963 283.502 360.482 286.035C364.037 288.742 365.074 293.808 363.215 297.803C363.828 299.738 364.095 301.925 364.708 303.86C369.626 321.182 373.349 338.315 373.546 356.422C373.586 373.584 368.276 387.755 364.729 404.349C360.219 425.079 362.367 444.414 364.326 464.944C365.657 481.698 364.737 497.176 358.295 512.699C355.175 520.783 350.656 528.033 347.285 535.77C342.937 545.804 341.233 556.563 338.333 567.133C334.031 582.688 325.37 594.796 318.818 609.076C310.99 625.605 298.836 636.548 284.999 648.448C260.188 669.64 234.795 692.578 203.176 702.581C185.753 708.093 167.261 710.679 148.36 711.974C146.265 717.463 139.575 720.999 134.258 715.868C129.744 711.477 125.007 710.42 122.618 704.221C119.615 696.086 121.083 686.822 118.427 678.436C114.654 667.422 110.678 655.763 105.615 645.158C104.907 643.82 104.247 642.184 103.539 640.847C101.098 646.587 97.7592 652.185 96.9246 653.585C90.8304 663.036 88.9695 672.851 85.0779 683.876ZM-132.501 114.821C-160.238 137.081 -178.381 170.358 -191.204 202.945C-197.443 219.113 -202.785 235.423 -205.782 252.411C-206.87 259.285 -209.359 265.324 -211.644 272.008C-215.189 282.782 -216.642 293.887 -218.692 304.898C-218.787 305.495 -218.929 306.392 -219.322 306.942C-219.467 313.659 -220.209 320.282 -220.951 326.904C-222.262 337.112 -220.911 344.066 -218.492 353.947C-215.696 367.256 -216.725 381.492 -214.276 395.054C-210.947 412.737 -209.758 430.387 -205.737 447.568C-204.244 453.625 -204.64 459.996 -203.148 466.053C-201.247 473.4 -195.867 480.073 -192.975 486.965C-187.441 500.402 -183.34 515.144 -180.088 529.445C-177.041 543.101 -171.161 556.286 -167.862 570.289C-166.887 573.813 -165.913 577.337 -164.64 580.909C-163.554 579.855 -162.169 578.849 -161.082 577.796C-154.754 572.671 -148.126 567.594 -140.744 563.555C-138.714 562.345 -136.384 561.182 -134.354 559.972C-134.809 558.98 -135.313 558.288 -135.769 557.297C-121.353 555.291 -106.384 547.858 -93.5403 542.234C-93.3834 543.178 -93.2264 544.121 -92.7704 545.113C-91.8735 545.255 -90.9292 545.098 -89.7333 545.287C-84.1299 542.805 -78.8255 540.275 -73.2695 538.092C-73.7254 537.1 -74.1341 535.81 -74.5427 534.52C-72.6068 533.908 -70.6709 533.295 -69.0339 532.635C-67.397 531.975 -65.8075 531.615 -64.1705 530.955C-63.7146 531.946 -62.9597 532.985 -62.5037 533.976C-52.0843 530.112 -41.9164 525.901 -31.7486 521.691C-32.0003 521.345 -32.5509 520.951 -32.8026 520.605C-30.5204 519.741 -28.2855 519.176 -26.0033 518.312C-25.4053 518.407 -25.1537 518.753 -24.5557 518.848C-19.9913 517.12 -15.4269 515.392 -10.6108 514.01C-6.78632 513.084 -1.86061 512.945 1.30356 510.383C3.08248 508.826 5.93031 510.196 6.19692 512.383C6.80744 520.139 1.5504 522.37 -4.94992 524.71C-6.24052 525.118 -7.53113 525.527 -8.86908 526.234C-8.01945 526.675 -6.87084 527.163 -5.97391 527.305C6.4563 532.031 20.4611 534.556 33.6636 536.34C57.0315 539.735 83.6559 545.79 106.887 538.441C118.502 534.766 135.972 528.955 143.813 520.087C152.787 509.867 160.314 499.111 170.091 489.63C180.56 479.647 192.412 474.478 195.927 460.023C196.558 457.979 196.637 455.54 197.016 453.149C198.324 448.761 201.426 444.657 201.837 440.127C202.358 436.839 201.321 431.774 201.889 428.187C201.984 427.59 202.126 426.693 202.22 426.095C201.371 425.654 200.222 425.166 199.373 424.725C198.224 424.237 199.153 422.24 200.302 422.728C201.151 423.169 202.001 423.61 202.898 423.752C205.546 412.836 209.705 403.997 206.767 391.584C204.285 380.162 207.31 372.676 208.511 361.225C209.427 351.566 208.66 342.867 211.418 333.194C211.654 331.7 213.324 328.9 212.788 330.347C212.883 329.75 212.977 329.152 213.025 328.853C206.619 330.596 199.867 332.59 192.911 333.939C192.864 334.238 192.864 334.238 192.816 334.537C190.372 346.097 191.643 355.489 192.236 367.225C193.205 382.39 189.202 397.993 186.835 412.936C184.468 427.879 180.716 443.828 174.007 457.164C171.408 461.961 168.259 466.364 164.056 469.681C156.295 476.11 152.358 481.614 146.705 490.216C142.674 496.317 135.795 501.048 131.213 506.756C126.726 511.866 124.128 516.663 117.328 518.956C106.311 522.725 92.1491 519.257 81.1964 518.747C66.9076 518.016 53.5307 519.267 39.8099 514.95C24.9405 510.144 10.3228 505.684 -3.77428 497.937C-14.7719 491.906 -18.0882 481.884 -21.1679 470.367C-25.5357 453.438 -30.8478 436.666 -33.3271 419.424C-33.3744 419.723 -33.7207 419.974 -33.7681 420.273C-34.6027 421.673 -37.1989 420.649 -36.3643 419.249C-35.5296 417.85 -34.7423 416.749 -33.9077 415.349C-35.5248 406.209 -37.8819 397.87 -40.4432 388.887C-40.4906 389.185 -40.8369 389.437 -40.8842 389.736C-44.4595 396.828 -47.6884 403.67 -51.2636 410.762C-53.9568 416.156 -57.0911 422.4 -62.7891 425.48L-63.0881 425.433C-62.7742 427.321 -62.1612 429.256 -61.2493 431.238C-58.6082 437.784 -54.2829 443.371 -52.2871 450.12C-49.0181 460.442 -51.4621 472.002 -50.0817 482.637C-53.4028 484.256 -56.724 485.874 -60.0452 487.493C-64.9337 473.851 -62.5196 458.609 -68.3051 444.826C-71.4494 437.588 -73.0516 430.288 -74.6064 422.689C-77.063 426.589 -79.5195 430.489 -81.9288 434.09C-82.7634 435.49 -84.667 433.963 -83.8323 432.563C-80.9821 428.113 -78.1319 423.663 -75.2816 419.212C-76.5225 413.502 -77.7633 407.791 -79.6021 401.985C-80.2151 400.05 -81.127 398.067 -82.0389 396.085C-87.1264 406.92 -92.8119 417.661 -100.149 427.222C-99.1751 430.746 -98.2482 434.569 -97.3213 438.392C-95.1536 447.926 -95.1733 457.727 -92.0613 467.104C-89.6096 474.845 -84.183 481.219 -80.7396 488.504C-79.5761 490.833 -78.4125 493.162 -77.2489 495.49C-80.2238 496.857 -83.4976 498.177 -86.4725 499.544C-89.8685 491.96 -92.3202 484.219 -96.4089 477.138C-100.246 470.403 -103.106 461.372 -104.96 453.726C-107.584 443.2 -109.908 432.722 -112.831 422.15C-115.597 412.521 -117.907 403.883 -118.485 393.988C-118.814 390.26 -119.489 386.783 -120.416 382.96C-120.809 383.51 -120.904 384.108 -121.25 384.36C-126.637 395.148 -132.322 405.889 -138.559 416.237C-138.307 416.583 -138.402 417.181 -138.15 417.527C-134.582 427.895 -131.408 438.814 -129.13 449.591C-126.35 461.06 -126.653 472.654 -122.928 483.966C-120.021 492.699 -114.138 500.064 -109.893 508.089C-111.183 508.497 -112.127 508.654 -113.418 509.062C-115.354 509.675 -114.537 512.255 -112.695 512.24C-111.153 512.178 -109.863 511.77 -108.32 511.708C-107.408 513.69 -106.198 515.72 -105.286 517.703C-98.454 513.27 -90.9147 510.176 -83.3281 506.782C-83.5797 506.436 -83.784 505.791 -84.0357 505.444C-80.7619 504.125 -77.488 502.805 -74.2142 501.485C-73.9626 501.832 -73.7109 502.178 -73.7583 502.477C-67.8559 500.042 -61.7492 498.252 -56.0985 495.47C-56.6018 494.778 -56.8535 494.432 -57.0578 493.787C-54.0829 492.42 -51.4544 491.304 -48.4795 489.937C-48.4795 489.937 -48.5269 490.236 -48.2279 490.283C-48.2279 490.283 -48.2279 490.283 -48.2752 490.582C-48.2752 490.582 -48.2752 490.582 -47.9289 490.331C-45.4574 488.271 -42.4376 492.426 -44.9092 494.485C-45.2555 494.737 -45.6018 494.988 -45.6018 494.988C-42.1261 500.134 -36.3208 504.117 -31.8061 508.509C-34.3873 509.325 -37.0158 510.441 -39.597 511.257C-42.3502 509.289 -45.056 507.023 -47.4628 504.803C-49.02 503.025 -50.8762 501.199 -52.7324 499.373C-58.4305 502.454 -64.2382 504.291 -70.5965 505.735C-70.8955 505.687 -71.2418 505.939 -71.5408 505.892C-71.2891 506.238 -71.0375 506.584 -70.8331 507.229C-67.6564 512.328 -66.9189 517.346 -65.9297 522.711C-69.2508 524.329 -72.2257 525.696 -75.5468 527.315C-75.4995 527.016 -75.7038 526.371 -75.6565 526.072C-76.4563 519.512 -78.7361 514.555 -81.6139 509.504C-89.1532 512.599 -96.2365 516.685 -103.32 520.771C-101.15 524.485 -99.0268 528.498 -96.5577 532.259C-96.0544 532.951 -95.5984 533.942 -95.3941 534.587C-99.6122 536.064 -103.531 537.588 -107.797 539.363C-109.872 535.052 -111.995 531.039 -114.37 526.68C-119.527 516.673 -122.45 506.1 -127.906 496.045C-132.703 487.626 -135.924 477.006 -138.139 467.771C-141.03 455.059 -143.92 442.347 -147.408 429.54C-150.331 418.967 -152.845 409.685 -153.926 399.097C-158.997 405.953 -163.815 413.156 -167.186 420.893C-166.934 421.239 -166.982 421.538 -166.73 421.885C-162.502 433.889 -158.966 446.397 -156.28 458.464C-153.185 471.822 -153.427 484.957 -149.089 498.204C-145.568 508.872 -138.081 517.717 -133.27 527.976C-130.283 534.27 -127.201 539.966 -124.071 545.363C-126.7 546.479 -128.982 547.343 -131.611 548.458C-132.602 548.914 -133.043 549.763 -132.54 550.455C-134.129 550.816 -135.42 551.225 -137.057 551.885C-137.717 550.248 -138.724 548.863 -139.384 547.227C-145.202 535.583 -148.533 523.72 -154.949 511.981C-160.5 502.524 -164.335 489.969 -166.659 479.491C-170.163 464.844 -173.367 450.244 -177.468 435.502C-181.161 422.05 -184.24 410.533 -185.352 396.265C-186.511 382.295 -192.296 368.512 -192.259 354.731C-192.506 342.744 -190.376 329.296 -188.231 317.688C-186.953 309.618 -185.864 302.745 -187.324 294.548C-188.485 286.399 -191.487 278.264 -192.003 269.911C-192.91 256.288 -188.01 240.827 -185.282 227.473C-183.421 217.658 -179.372 207.576 -173.515 199.62C-166.524 190.311 -162.129 179.978 -156.286 170.181C-153.782 165.982 -150.601 159.44 -146.256 155.226C-138.854 141.387 -129.279 125.441 -113.398 119.991C-108.535 118.311 -103.106 118.864 -97.724 119.717C-88.3735 112.926 -78.7239 106.183 -68.8228 99.7855C-92.8683 98.7342 -115.247 100.704 -132.501 114.821ZM169.202 545.553C181.38 549.933 194.441 552.614 207.108 555.846C209.532 554.085 211.909 552.624 214.333 550.863C220.614 546.037 225.542 540.078 229.92 533.725C227.528 533.346 224.837 532.92 222.493 532.242C220.998 532.005 221.376 529.615 222.871 529.851C225.861 530.325 228.552 530.751 231.494 531.523C235.132 525.972 238.565 519.776 242.25 513.926C232.825 511.515 223.746 508.851 215.501 504.788C209.611 514.884 204.115 524.43 193.773 531.676C185.855 537.162 177.576 541.059 169.202 545.553ZM231.578 633.554C231.483 634.151 231.341 635.048 230.948 635.598C237.575 630.521 243.903 625.396 250.232 620.271C244.063 620.52 238.145 621.114 232.024 621.064C220.127 620.711 208.23 620.359 196.333 620.006C195.389 620.163 194.98 618.873 195.075 618.275C192.65 620.036 190.226 621.796 187.755 623.856C183.504 627.471 180.103 631.528 176.451 635.239C182.824 635.635 189.496 636.079 195.917 636.177C201.441 636.133 206.964 636.089 212.535 635.746C215.919 635.669 228.02 636.667 230.083 633.317C230.776 632.814 231.673 632.956 231.578 633.554ZM269.469 605.243C263.773 602.503 258.172 599.165 252.13 596.676C248.086 595.116 244.341 593.604 240.298 592.045C232.128 597.184 223.455 601.632 214.735 606.378C221.816 608.112 228.897 609.846 235.978 611.58C240.667 612.936 245.403 613.992 249.699 615.898C250.847 616.386 252.295 616.922 253.742 617.457C259.63 613.182 264.824 609.409 269.469 605.243ZM251.664 618.966C249.367 617.99 247.668 617.108 246.22 616.572C235.489 612.728 223.924 610.284 212.704 607.588C207.006 610.668 201.56 614.094 196.066 617.819C207.066 618.03 218.365 618.288 229.318 618.797C236.038 618.942 242.71 619.386 249.477 619.233C250.468 618.777 251.066 618.872 251.664 618.966ZM167.925 627.148C174.395 621.127 179.969 614.963 186.99 609.336C189.807 607.025 192.877 605.06 195.648 603.048C192.705 602.276 189.81 601.204 186.616 600.086C185.467 599.597 186.349 597.899 187.498 598.387C190.991 599.553 194.185 600.672 197.678 601.838C205.596 596.352 214.017 591.559 222.187 586.419C212.51 583.661 202.486 581.154 192.463 578.648C184.734 582.938 177.305 587.276 170.535 593.25C164.506 598.422 160.38 605.121 152.998 609.16C145.616 613.199 137.526 615.9 129.027 617.311C123.661 618.299 118.687 618.737 113.714 619.175C118.889 625.203 122.789 633.479 125.492 641.566C127.381 641.253 129.269 640.939 130.859 640.578C144.378 638.43 158.243 636.031 167.925 627.148ZM224.91 584.706C229.365 581.735 233.82 578.764 237.975 575.746C240.4 573.986 242.572 571.879 244.745 569.772C236.468 567.849 228.632 565.076 220.749 562.602C212.831 568.088 204.158 572.535 195.784 577.029C205.556 579.19 215.233 581.948 224.91 584.706ZM246.666 567.319C254.065 559.301 259.861 549.802 265.656 540.304C258.48 539.168 251.053 537.685 243.626 536.202C238.224 545.15 231.973 553.657 222.922 560.495C231.104 563.016 238.735 565.144 246.666 567.319ZM276.601 521.512C274.256 520.834 271.613 520.109 269.221 519.73C264.783 518.721 260 517.963 255.263 516.907C254.035 518.857 253.153 520.555 251.925 522.505C249.468 526.405 247.311 530.352 244.854 534.252C251.982 535.687 259.409 537.17 266.585 538.307C268.695 534.658 270.853 530.711 273.262 527.11C274.443 525.459 275.671 523.509 276.601 521.512ZM292.954 476.31C293.238 474.517 293.271 472.377 293.256 470.537C287.827 469.983 282.051 469.681 276.622 469.128C275.725 468.986 274.828 468.844 273.932 468.702C273.411 471.989 272.591 475.229 271.724 478.768C270.464 482.858 269.203 486.947 267.643 490.989C274.819 492.125 281.695 493.215 288.918 494.052C290.762 488.217 292.354 482.036 292.954 476.31ZM293.973 448.593C294.446 445.604 295.219 442.663 295.991 439.722C290.011 438.775 283.984 438.126 277.957 437.478C276.365 443.659 274.522 449.495 274.582 456.857C274.659 460.239 274.485 463.275 274.011 466.263C276.104 466.595 278.543 466.675 280.684 466.707C284.618 467.024 288.851 467.388 292.785 467.705C293.432 461.681 292.932 455.168 293.973 448.593ZM300.61 420.234C301.163 414.807 302.314 409.475 303.764 404.19C296.887 403.101 290.215 402.657 283.291 401.866C281.714 409.888 282.576 417.99 281.298 426.059C280.778 429.347 279.958 432.587 278.887 435.481C284.914 436.129 290.941 436.777 296.92 437.724C298.418 432.141 299.915 426.557 300.61 420.234ZM313.458 366.205C314.39 358.387 313.874 350.034 312.366 342.136C310.824 342.198 308.983 342.213 307.393 342.574C300.532 343.325 293.623 344.376 286.714 345.426C287.578 347.707 288.49 349.69 289.009 352.223C290.454 358.579 291.553 365.187 291.109 371.856C292.353 371.747 293.847 371.983 295.091 371.874C300.913 371.877 306.437 371.833 312.354 371.238C313.236 369.54 313.52 367.747 313.458 366.205ZM343.769 323.827C335.303 323.099 323.862 323.737 317.394 323.938C317.77 327.368 318.54 330.247 320.553 333.017C321.308 334.055 321.072 335.55 320.332 336.352C321.039 337.689 321.448 338.979 322.203 340.018C327.727 339.974 333.549 339.977 339.168 339.335C341.355 339.069 343.59 338.504 345.825 337.939C345.339 333.266 344.554 328.547 343.769 323.827ZM311.173 336.126C310.199 332.602 309.68 330.069 309.461 327.584C309.005 326.592 308.848 325.648 308.739 324.406C300.382 324.92 291.774 325.089 283.417 325.603C282.864 331.03 283.004 335.954 285.725 340.061C286.48 341.1 286.29 342.295 285.55 343.097C285.503 343.396 285.802 343.443 285.755 343.742C289.532 343.115 293.309 342.488 297.086 341.861C302.106 341.124 306.78 340.639 311.659 340.799C311.943 339.006 311.582 337.417 311.173 336.126ZM222.533 359.769C222.216 363.702 221.098 366.895 219.932 370.386C219.932 370.386 220.231 370.433 220.53 370.481C227.501 370.972 234.771 371.511 241.837 371.405C242.485 365.38 241.984 358.867 240.743 353.156C234.778 354.05 228.766 355.242 222.802 356.136C222.612 357.331 222.722 358.574 222.533 359.769ZM268.524 415.764C269.03 410.636 270.134 405.603 271.489 400.916C262.425 400.093 253.408 398.971 244.738 397.598C244.643 398.196 244.548 398.794 244.454 399.391C243.113 405.919 243.866 412.778 242.777 419.652C242.067 424.135 240.854 427.925 239.64 431.716C248.059 432.743 256.226 433.424 264.645 434.451C266.237 428.269 268.081 422.434 268.524 415.764ZM272.167 398.573C274.688 390.394 277.508 382.263 279.133 373.942C269.926 374.016 260.421 374.042 251.263 373.817C251.026 375.311 251.088 376.853 250.553 378.3C249.307 384.229 246.913 389.671 245.069 395.506C254.385 396.675 263.103 397.75 272.167 398.573ZM241.458 373.796C234.44 373.603 227.122 373.363 220.151 372.872C219.852 372.824 219.553 372.777 219.301 372.431C218.718 374.177 218.135 375.922 217.851 377.716C217.094 382.497 217.879 387.217 218.412 391.591C224.392 392.538 230.073 393.437 236.052 394.384C238.085 387.354 240.37 380.669 241.458 373.796ZM249.491 357.912C250.622 362.38 251.407 367.1 251.295 371.677C260.8 371.651 270.006 371.577 279.511 371.551C279.653 370.654 279.795 369.758 279.937 368.861C280.727 361.94 280.116 354.184 278.813 346.932C272.502 348.077 266.191 349.222 259.928 350.068C255.553 350.6 251.477 351.18 247.101 351.713C248.312 353.743 248.925 355.678 249.491 357.912ZM254.294 348.869C262.447 347.709 270.347 346.204 278.547 344.745C278.342 344.1 278.185 343.156 277.981 342.511C277.211 339.632 276.646 337.398 276.678 335.258C275.609 332.332 275.185 329.201 275.061 326.118C265.508 326.443 255.61 327.02 246.057 327.345C244.921 334.518 243.045 342.492 246.773 347.984C247.276 348.677 247.134 349.573 246.74 350.124C249.274 349.606 251.761 349.387 254.294 348.869ZM293.815 374.123C292.918 373.981 291.974 374.138 291.077 373.995C290.935 374.892 290.793 375.789 290.651 376.685C288.822 384.361 285.499 391.8 283.623 399.774C290.594 400.266 297.219 401.009 304.095 402.098C306.806 392.724 310.067 383.743 312.18 374.274C306.058 374.224 299.937 374.173 293.815 374.123ZM266.667 493.285C263.642 500.771 260.366 507.911 256.492 514.957C260.929 515.966 265.414 516.676 269.851 517.685C272.542 518.111 275.185 518.837 277.829 519.562C281.703 512.516 285.42 504.527 288.241 496.396C281.018 495.558 273.842 494.422 266.667 493.285ZM216.383 503.09C224.628 507.153 234.006 509.863 243.132 512.228C243.919 511.127 244.408 509.979 245.195 508.878C248.486 503.579 251.573 497.634 254.062 491.595C244.447 490.379 234.486 489.414 225.36 487.049C223.155 491.295 220.997 495.242 218.493 499.441C217.706 500.542 216.871 501.942 216.383 503.09ZM237.1 486.458C243.079 487.405 249.059 488.352 255.039 489.299C258.016 482.111 260.443 474.53 261.579 467.358C252.609 465.937 244.081 463.667 235.301 461.051C235.206 461.649 235.064 462.546 234.67 463.096C232.291 470.378 229.613 477.613 226.336 484.753C229.924 485.321 233.512 485.889 237.1 486.458ZM261.957 464.967L262.005 464.668C262.984 456.552 261.429 448.953 263.053 440.632C263.29 439.138 263.479 437.942 264.015 436.495C255.549 435.767 247.429 434.787 239.01 433.76C238.143 437.299 237.575 440.886 237.51 445.164C237.697 449.789 236.987 454.272 235.978 458.708C244.459 461.277 253.334 463.295 261.957 464.967ZM227.933 430.168C229.32 423.341 231.762 417.601 232.253 410.632C232.711 405.803 233.768 401.069 235.422 396.429C230.04 395.577 224.359 394.677 218.679 393.777C218.741 395.319 218.803 396.861 218.818 398.701C218.375 405.371 216.845 413.094 215.552 419.322C214.78 422.264 214.102 424.607 213.377 427.25C218.066 428.605 222.85 429.363 227.933 430.168ZM4.95419 359.62C2.46767 359.839 -0.210604 367.074 -2.16388 371.666C-1.91224 372.012 -1.9596 372.311 -1.75527 372.956C-0.262785 379.014 1.87501 384.867 3.76115 390.373C8.3903 384.367 13.5227 379.052 18.1519 373.046C18.4982 372.794 18.5455 372.495 18.9392 371.945C16.9584 367.036 14.4269 361.733 14.2874 356.809C13.9434 351.241 16.4474 347.042 20.2568 344.275C20.3042 343.976 20.3042 343.976 20.3515 343.677C25.17 336.475 34.9741 336.496 42.7326 335.887C55.1179 335.091 65.1413 337.598 77.3397 332.178C84.5799 329.035 92.2313 321.363 100.697 322.091C112.452 323.34 123.146 340.964 126.415 351.286C130.596 363.589 127.489 379.334 121.159 390.28C116.151 398.677 114.496 403.317 112.982 412.88C111.988 419.156 110.994 425.432 109.701 431.661C107.603 442.971 95.2129 455.407 85.1547 460.86C73.4596 466.973 59.2505 463.804 50.0642 454.077C39.5723 442.918 36.8264 423.489 30.9936 410.004C26.277 399.148 24.4083 389.661 21.5803 378.491C21.1717 377.2 20.8103 375.611 20.1501 373.975C15.1746 380.233 9.64851 386.098 4.97202 392.403C9.70358 405.101 14.7815 417.546 17.7814 431.501C21.347 447.69 28.4704 460.767 43.0234 469.505C55.0749 476.622 65.6315 483.502 80.0797 479.357C93.8353 475.715 105.64 470.845 116.613 461.554C127.931 452.011 131.006 438.405 133.577 424.108C135.39 414.591 135.363 405.09 139.269 395.905C144.546 383.874 149.791 373.982 151.323 360.439C152.113 353.518 152.242 344.96 148.31 338.823C145.086 334.023 137.345 330.653 132.689 327.158C124.775 321.003 118.342 313.244 110.083 307.34C105.426 303.846 100.926 301.295 94.8671 302.786C91.3416 303.759 86.6028 308.523 82.731 309.748C72.6579 313.361 62.3978 312.349 51.8538 313.129C41.955 313.706 32.7489 313.78 23.2138 310.125C14.2294 306.864 -10.7904 302.289 -19.6077 313.453C-23.8282 320.75 -18.591 328.319 -15.038 336.847C-14.7863 337.193 -14.8337 337.492 -14.582 337.838C-14.2357 337.587 -13.9367 337.634 -13.8894 337.335L-13.5904 337.383C-13.5904 337.383 -13.5904 337.383 -13.5431 337.084C-12.2051 336.376 -11.2932 338.359 -12.6312 339.066C-12.9775 339.318 -13.3238 339.569 -13.6701 339.821C-9.6138 349.041 -6.15548 358.167 -3.38979 367.796C-1.62583 364.399 -0.208201 361.253 0.957784 357.762C1.05246 357.164 1.69774 356.96 2.29571 357.055C3.19266 357.197 3.83796 356.993 4.73491 357.135C5.83616 357.922 5.89847 359.463 4.95419 359.62ZM40.5552 349.635C34.4785 355.106 29.7547 361.71 24.7792 367.968C25.6438 370.25 26.8547 372.28 27.4677 374.215C32.0248 389.948 36.3777 405.036 42.5244 420.409C44.9139 426.608 48.153 433.248 51.534 438.992C58.752 451.47 73.0708 455.883 84.4843 445.742C88.3885 442.378 93.3316 438.259 96.9367 434.848C101.676 430.084 103.552 422.109 104.939 415.283C106.91 406.711 107.054 399.994 111.716 391.847C121.432 375.005 127.06 351.081 107.395 337.857C96.5866 330.631 79.804 347.579 66.5541 346.094C57.191 345.223 39.8674 338.497 28.3941 341.275C30.2826 340.961 31.8249 340.899 33.6188 341.183C35.1137 341.42 35.9783 343.702 34.3414 344.361C28.297 347.693 22.0957 350.081 21.7146 358.292C21.6822 360.432 22.4995 363.012 23.6157 365.64C28.2922 359.334 33.016 352.73 39.596 347.951C40.5403 347.794 41.2479 349.132 40.5552 349.635ZM-17.8931 352.938C-18.5533 351.302 -19.2136 349.665 -19.8738 348.029C-20.3622 349.177 -20.8032 350.026 -21.5905 351.127C-21.6378 351.426 -21.9368 351.378 -22.2358 351.331C-23.9997 354.728 -25.213 358.519 -26.9297 361.617C-28.7409 365.312 -30.8985 369.26 -32.7098 372.955C-29.6451 382.632 -27.1784 392.213 -25.357 401.998C-20.2395 394.844 -14.7757 387.437 -9.9099 379.936C-12.1723 371 -14.3874 361.765 -17.8931 352.938ZM-66.245 410.534C-65.3655 414.656 -64.8322 419.029 -63.9527 423.151C-57.1683 419.018 -53.8598 409.738 -50.6782 403.196C-47.8903 397.204 -44.8034 391.26 -42.0154 385.268C-43.6026 379.808 -44.2928 374.491 -45.3293 369.425C-48.8896 378.358 -53.0005 386.898 -58.3546 395.547C-61.2049 399.997 -63.7561 404.495 -66.6537 409.244C-66.6537 409.244 -66.4493 409.889 -66.245 410.534ZM-75.158 348.77C-73.835 346.222 -72.4647 343.376 -72.826 341.787C-74.1789 340.653 -75.5318 339.52 -76.8374 338.088C-77.53 338.591 -77.9237 339.141 -78.6636 339.943C-77.3431 343.216 -75.9279 345.891 -75.158 348.77ZM-101.612 424.846C-94.2745 415.285 -89.1869 404.449 -83.8004 393.661C-85.42 390.341 -86.9921 386.722 -87.9664 383.198C-93.4002 394.285 -98.7867 405.074 -104.221 416.161C-103.451 419.04 -102.681 421.919 -101.612 424.846ZM-92.6558 155.444C-89.1304 154.471 -85.4479 154.441 -81.8128 154.711C-77.3256 149.6 -72.7912 144.191 -68.304 139.081C-73.9847 138.182 -79.8696 136.637 -85.8493 135.69C-90.5731 142.294 -95.5959 148.851 -101.169 155.015C-107.435 161.681 -114.803 167.561 -121.32 173.881C-122.407 174.934 -124.011 173.455 -122.925 172.401C-116.754 166.333 -109.733 160.705 -103.561 154.636C-97.7361 148.819 -92.7133 142.262 -87.9422 135.358C-102.64 133.337 -117.07 133.502 -126.974 145.72C-126.234 144.918 -127.856 147.418 -129.383 149.321C-133.32 154.824 -138.562 158.896 -142.247 164.746C-143.869 167.246 -146.971 171.35 -150.466 176.004C-150.86 176.555 -151.002 177.451 -151.049 177.75C-154.562 186.385 -156.044 193.809 -160.957 201.609C-162.138 203.26 -162.973 204.659 -163.808 206.059C-163.855 206.358 -164.249 206.908 -164.296 207.207C-167.288 212.554 -169.635 217.697 -171.621 224.428C-175.355 236.397 -178.809 252.394 -179.601 265.135C-180.141 278.223 -174.465 290.764 -174.659 303.6C-174.759 315.839 -177.99 328.5 -178.987 340.597C-180.22 354.187 -178.949 363.579 -175.854 376.937C-172.855 390.891 -172.64 405.018 -168.397 418.863C-164.727 411.173 -159.908 403.971 -154.492 396.863C-154.397 396.266 -154.649 395.919 -154.554 395.322C-155.399 383.24 -160.572 371.392 -160.771 359.106C-160.956 348.661 -159.11 337.005 -157.5 326.844C-156.411 319.97 -155.417 313.694 -156.768 306.74C-157.772 299.535 -160.366 292.691 -160.725 285.281C-161.569 273.199 -157.347 260.082 -154.903 248.521C-153.231 239.902 -149.718 231.267 -144.6 224.113C-138.397 215.904 -134.836 206.971 -129.53 198.621C-127.12 195.02 -124.38 189.327 -121.026 185.569C-114.9 173.979 -106.852 159.935 -92.6558 155.444ZM-68.107 157.188C-63.6222 157.898 -58.8859 158.955 -54.4485 159.964C-49.473 153.706 -44.4975 147.447 -39.4747 140.89C-46.5407 140.997 -53.5592 140.804 -60.4832 140.014C-62.277 139.73 -63.772 139.493 -65.5659 139.209C-70.053 144.319 -74.5401 149.429 -79.0746 154.838C-74.9362 155.8 -71.3958 156.667 -68.107 157.188ZM-35.4556 163.891C-33.9607 164.128 -32.1195 164.113 -30.6246 164.35C-30.059 166.584 -29.4461 168.519 -29.1794 170.706C-27.3532 168.851 -25.5269 166.995 -24.047 165.392L-24.2986 165.045C-23.9997 165.093 -23.9997 165.093 -23.7007 165.14C-23.7007 165.14 -23.6533 164.841 -23.3544 164.889C-23.307 164.59 -23.2597 164.291 -23.2124 163.992C-23.1327 161.554 -21.1968 160.941 -19.6545 160.879C-14.1284 155.015 -8.60233 149.15 -3.37523 143.238L-3.67421 143.191C-14.0912 141.234 -25.1386 141.323 -35.887 141.459C-40.9098 148.016 -46.2315 154.525 -51.5533 161.035C-45.8727 161.935 -40.8846 163.337 -35.4556 163.891ZM-15.9421 164.531C-9.52151 164.629 -2.75455 164.475 3.61872 164.872C3.77571 165.816 3.93268 166.76 4.43598 167.452C6.60855 165.345 8.82845 162.94 11.0484 160.534C9.86981 156.365 8.69129 152.195 7.51275 148.026C7.35578 147.082 7.19879 146.138 7.0418 145.194L6.74282 145.147C6.17722 142.913 5.61162 140.679 5.09335 138.146C4.35339 138.948 3.56608 140.048 2.52715 140.803C-3.78626 147.768 -10.3986 154.686 -16.712 161.652C-16.2561 162.643 -15.7528 163.335 -15.9421 164.531ZM22.0508 154.924C22.285 159.25 22.5666 163.277 23.1472 167.352C26.9866 168.266 30.9207 168.583 34.9495 168.302C41.8609 161.432 48.1742 154.466 54.535 147.202C46.4924 149.604 39.8351 151.001 30.771 150.178C28.9298 150.193 26.8369 149.861 25.043 149.577C23.9567 150.63 22.8231 151.983 21.7369 153.036C21.9412 153.681 22.1455 154.326 22.0508 154.924ZM28.2651 196.96C28.7834 199.493 29.5534 202.372 30.3706 204.953C48.8601 208.187 68.1418 198.681 85.7218 194.112C92.7728 192.166 98.2815 190.281 105.567 192.66C108.509 193.433 111.357 194.803 113.953 195.827C116.33 194.365 118.707 192.903 120.785 191.394C127.223 187.512 133.912 183.976 139.895 179.103C140.981 178.05 142.366 177.044 143.452 175.99C135.475 174.114 127.591 171.64 120.448 168.364C117.301 166.947 114.705 165.923 112.062 165.198C98.508 175.305 84.9543 185.413 71.149 195.174C69.7637 196.18 68.2539 194.103 69.6391 193.097C82.7992 183.54 95.9118 174.281 108.521 164.331C106.428 163.999 103.942 164.218 100.763 164.94C96.3403 165.771 92.1695 166.949 87.6998 168.079C77.4697 170.748 67.1922 173.715 56.8674 176.982C48.4786 179.636 42.4192 181.127 33.6067 180.65C30.8686 180.523 28.4767 180.144 25.8332 179.419C25.4869 179.67 25.0932 180.221 24.448 180.425C25.9878 186.183 26.977 191.548 28.2651 196.96ZM154.092 211.375C156.042 212.603 157.993 213.831 159.944 215.059C164.1 212.041 168.256 209.023 172.412 206.005C176.268 202.939 180.377 200.22 184.533 197.202C182.268 194.086 179.657 191.222 176.998 188.656C174.088 185.744 170.438 183.634 166.992 182.169C157.153 190.108 147.362 197.748 137.57 205.388C142.763 207.436 148.695 208.682 154.092 211.375ZM233.344 208.303C229.333 204.604 225.668 200.653 222.349 196.451C221.31 197.206 220.224 198.259 219.185 199.014C215.328 202.079 211.172 205.097 207.064 207.817C210.634 212.365 214.204 216.913 218.121 221.21C224.464 217.925 231.059 214.987 237.906 212.395C236.301 210.916 234.697 209.436 233.344 208.303ZM130.14 136.2C122.1 132.782 118.103 130.923 109.951 132.083C100.615 140.714 91.3271 149.047 81.6926 157.63C85.2181 156.657 88.4446 155.636 91.97 154.663C100.611 152.355 107.111 150.015 115.891 152.631C117.937 153.261 119.982 153.891 121.98 154.821C125.097 152.557 127.915 150.246 131.079 147.684C134.243 145.121 137.408 142.559 140.273 139.949C136.78 138.783 133.287 137.617 130.14 136.2ZM132.424 92.7524C124.257 92.0715 114.909 93.0418 105.717 94.956C104.631 96.0094 103.891 96.8113 103.104 97.912C98.963 102.771 94.8222 107.629 90.4297 112.142C85.9899 116.953 81.5501 121.764 77.1576 126.276C83.9569 123.983 90.7563 121.69 97.4609 119.995C106.4 117.735 113.247 115.143 121.823 117.114C123.602 115.557 125.082 113.954 126.861 112.397C131.946 107.382 136.276 101.328 141.109 95.9662C141.503 95.4158 141.849 95.1643 142.243 94.6139C138.703 93.7468 135.76 92.9744 132.424 92.7524ZM-69.0121 100.981C-77.7647 107.866 -86.5173 114.752 -95.5215 121.291C-92.2327 121.812 -89.2902 122.584 -86.3004 123.058C-84.2075 123.389 -82.4136 123.673 -80.3681 124.304C-77.1716 119.602 -74.3213 115.152 -71.1248 110.45C-69.1092 107.399 -66.7946 104.396 -64.1811 101.44C-65.975 101.156 -67.4699 100.919 -69.0121 100.981ZM-68.9846 110.482C-72.1811 115.184 -75.3777 119.886 -78.2752 124.635C-72.0439 125.928 -65.561 127.568 -59.3297 128.861C-58.9361 128.311 -58.1961 127.509 -57.8025 126.959C-51.7881 119.946 -45.4746 112.981 -40.0109 105.574C-47.1391 104.139 -54.5663 102.656 -62.0882 101.771C-64.3554 104.476 -66.969 107.432 -68.9846 110.482ZM-22.4656 108.966C-27.202 107.909 -32.2847 107.104 -37.32 106C-38.4536 107.353 -39.3356 109.051 -40.4692 110.403C-45.492 116.96 -51.0655 123.124 -56.6389 129.287C-54.247 129.666 -51.8552 130.045 -49.4633 130.424C-43.7353 131.025 -37.96 131.327 -32.1374 131.33C-26.7209 124.222 -21.3045 117.115 -15.888 110.008C-17.7292 110.022 -20.0738 109.345 -22.4656 108.966ZM-28.2033 131.647C-19.6424 131.777 -11.0343 131.609 -2.52077 132.038C-2.39615 135.121 -1.97257 138.252 -1.54897 141.383C-0.80901 140.581 -0.116372 140.078 0.324609 139.229C1.75722 137.924 2.93816 136.273 4.37078 134.968C4.21379 134.024 4.0095 133.379 3.85252 132.435C4.1515 132.482 4.74947 132.577 5.04845 132.624C4.62485 129.494 3.94961 126.017 3.52601 122.886C3.10241 119.755 2.17552 115.932 1.59493 111.858C-2.98445 111.745 -7.21754 111.381 -11.7496 110.969C-17.4177 117.731 -22.7868 124.539 -28.2033 131.647ZM11.997 111.973C12.4056 113.263 12.8143 114.554 12.9239 115.796C13.4895 118.031 14.3541 120.312 14.967 122.247C17.9742 118.741 20.9814 115.234 23.9413 112.027C20.3062 111.758 15.9784 111.991 11.997 111.973ZM18.8016 134.802C23.538 135.859 28.4164 136.019 33.0431 135.833C41.2774 126.414 49.2127 116.949 57.3997 107.829C49.0582 110.184 40.8586 111.643 31.6525 111.717C30.7556 111.574 30.1103 111.779 29.2133 111.637C24.7735 116.448 20.68 121.008 16.2402 125.819C17.3091 128.745 18.079 131.624 18.8016 134.802ZM81.1811 100.873C75.0744 102.663 68.9678 104.453 63.1601 106.291C54.8784 116.008 46.5968 125.725 38.0161 135.395C49.5045 134.457 61.0725 131.081 72.3416 127.658C77.1277 122.595 81.9138 117.533 87.0463 112.218C91.4387 107.706 95.5796 102.847 99.7204 97.9888C100.46 97.1869 101.2 96.3851 101.94 95.5832C94.2914 97.4353 87.2404 99.3821 81.1811 100.873ZM93.0636 136.148C81.5902 138.926 70.3211 142.35 59.3511 145.82C52.644 153.336 45.8896 161.151 38.9309 168.32C51.3162 167.524 63.5769 163.646 75.8376 159.767C85.8185 150.931 95.453 142.347 105.182 133.166C101.059 134.045 96.9354 134.923 93.0636 136.148ZM130.165 151.522C128.386 153.078 126.355 154.288 124.576 155.845C132.916 159.31 140.814 163.624 148.901 166.743C150.349 167.279 151.796 167.815 153.291 168.051C153.638 167.8 153.638 167.8 153.984 167.548C162.547 161.859 171.11 156.169 179.123 150.085C173.883 148.336 168.297 146.839 162.617 145.939C156.086 144.598 149.304 142.911 142.869 140.973C139.169 144.982 134.368 148.205 130.165 151.522ZM194.777 159.611C194.478 159.563 194.526 159.264 194.227 159.217C189.63 163.084 184.986 167.251 180.389 171.118C178.61 172.674 176.532 174.183 174.706 176.039C181.754 179.912 187.968 185.185 193.442 191.26C196.213 189.248 199.33 186.985 202.1 184.973C204.871 182.961 207.641 180.949 210.364 179.235C205.678 172.06 200.944 165.183 194.777 159.611ZM174.95 157.083C169.062 161.359 162.923 165.288 156.737 169.516C162.024 170.966 167.311 172.416 172.456 174.763C173.889 173.458 175.274 172.452 177.005 171.195C182.295 166.824 187.333 162.108 192.622 157.738C189.366 155.077 185.967 153.314 182.27 151.503C179.846 153.263 177.374 155.323 174.95 157.083ZM217.971 166.041C219.276 167.474 220.236 169.157 221.541 170.59C224.013 168.53 226.437 166.77 228.909 164.71C232.813 161.346 236.717 157.982 240.873 154.964C234.801 148.794 228.729 142.624 221.917 137.256C216.927 141.674 211.433 145.399 206.191 149.47C205.152 150.225 204.113 150.98 203.373 151.781C208.832 156.016 213.598 160.753 217.971 166.041ZM247.998 162.219C246.394 160.74 244.789 159.26 243.484 157.828C240.761 159.541 238.085 160.955 235.613 163.015C232.795 165.326 229.977 167.637 227.16 169.948C225.774 170.954 224.389 171.96 223.303 173.013C226.37 176.869 229.39 181.023 232.409 185.178C237.006 181.311 241.902 177.491 246.75 173.97C249.222 171.91 251.646 170.15 254.417 168.138C252.01 165.918 249.855 164.045 247.998 162.219ZM220.587 194.028C217.568 189.873 214.595 185.42 211.623 180.967C207.168 183.937 203.012 186.955 198.809 190.272C197.77 191.027 196.385 192.033 195.298 193.086C195.802 193.779 196.352 194.172 196.856 194.865C199.671 198.374 202.487 201.884 205.255 205.692C210.449 201.919 215.644 198.147 220.587 194.028ZM185.948 199.877C178.282 205.709 170.269 211.792 162.351 217.278C165.356 219.592 168.266 222.504 170.877 225.368C178.857 221.424 186.885 217.181 194.661 212.592C191.688 208.139 188.968 204.031 185.948 199.877ZM164.349 181.444C159.455 179.444 154.121 178.293 148.739 177.44C148.141 177.346 147.244 177.204 146.348 177.062C146.001 177.313 145.608 177.863 144.962 178.068C136.115 185.551 126.01 191.303 116.203 197.102C121.647 199.496 126.996 202.488 132.535 204.284C133.133 204.379 133.385 204.725 133.983 204.82C144.671 197.322 154.51 189.383 164.349 181.444ZM21.7542 149.056C21.4552 149.009 21.7542 149.056 21.7542 149.056C21.4552 149.009 21.4552 149.009 21.7542 149.056C21.7542 149.056 21.4552 149.009 21.7542 149.056ZM-139.926 413.263C-133.249 402.066 -127.469 390.727 -121.689 379.388C-123.025 374.275 -124.061 369.209 -124.153 363.987C-124.074 361.548 -123.994 359.11 -123.867 356.373C-126.465 361.17 -129.914 365.525 -133.409 370.18C-137.251 375.085 -140.841 380.338 -144.431 385.59C-143.161 394.982 -142.488 404.279 -139.926 413.263ZM174.01 108.836C165.215 104.379 155.067 98.7895 144.587 95.2916C141.675 98.2003 139.266 101.801 137.297 104.553C133.456 109.459 129.409 113.72 125.064 117.933C133.797 120.848 142.34 124.959 150.884 129.069C151.624 128.267 152.364 127.465 152.852 126.317C157.088 120.861 161.56 113.91 168.611 111.964C169.256 111.759 170.106 112.2 169.964 113.097C168.765 118.728 162.626 122.657 158.423 125.974C158.03 126.525 157.275 125.486 157.92 125.282C161.131 122.421 165.634 119.151 167.492 115.156C161.4 118.787 157.417 124.589 153.181 130.046C156.328 131.463 159.774 132.928 162.968 134.047C171.354 137.213 180.324 138.634 188.616 142.398C193.354 137.634 199.668 130.669 205.505 132.512C206.103 132.607 206.355 132.953 206.26 133.551L205.834 136.241C205.74 136.838 204.843 136.696 204.638 136.051C203.759 131.929 194.471 140.262 190.913 143.374C191.212 143.422 191.463 143.768 191.762 143.815C195.161 145.579 198.213 147.594 201.218 149.908C206.46 145.837 211.655 142.064 216.897 137.993C216.944 137.694 216.645 137.647 216.991 137.395C218.03 136.64 218.77 135.839 219.809 135.084C218.708 134.297 217.906 133.557 216.804 132.77C204.439 123.765 187.903 115.938 174.01 108.836ZM284.009 190.287C274.601 183.895 264.941 177.157 256.021 169.617C254.683 170.324 253.692 170.78 252.605 171.833C246.025 176.612 239.697 181.737 233.668 186.909C239.55 194.274 245.779 201.388 253.189 206.851C258.745 204.667 264.301 202.483 269.653 199.655C275.004 196.826 280.75 193.447 287.013 192.601C286.714 192.554 286.463 192.207 286.164 192.16C286.101 190.618 285 189.831 284.009 190.287ZM162.472 305.528C162.173 305.481 162.22 305.182 161.921 305.135C164.739 302.824 167.604 300.214 170.422 297.903C170.721 297.95 170.674 298.249 170.973 298.297C176.656 293.376 182.04 288.408 187.424 283.44C187.424 283.44 187.424 283.44 187.125 283.393C194.981 276.365 202.789 269.637 210.645 262.609L210.943 262.656C217.272 257.532 223.349 252.061 229.425 246.59C229.425 246.59 229.126 246.542 229.174 246.243C232.779 242.832 236.636 239.766 240.241 236.355L240.54 236.402C244.098 233.289 247.655 230.176 250.914 227.016C247.342 228.288 243.422 229.812 239.85 231.085C238.559 231.493 237.946 229.558 239.237 229.149C244.147 227.17 249.31 225.537 254.221 223.557C258.125 220.193 261.777 216.482 265.382 213.071C265.681 213.118 266.232 213.512 266.531 213.559C274.89 207.224 284.004 201.928 293.023 197.229C291.969 196.143 290.868 195.356 289.767 194.569C288.979 195.669 288.145 197.069 287.656 198.217C287.263 198.768 286.712 198.374 286.807 197.776C286.854 197.477 288.618 194.08 288.067 193.687C287.265 192.947 282.307 195.225 281.315 195.681C276.751 197.409 272.69 199.829 268.629 202.25C264.269 204.623 260.003 206.398 255.439 208.126C256.54 208.913 257.689 209.401 258.491 210.141C254.587 213.505 250.73 216.571 246.826 219.935C244.372 218.015 242.216 216.142 239.81 213.922C232.963 216.514 226.321 219.751 219.678 222.988C223.391 226.64 227.449 230.04 231.949 232.59C228.439 235.404 225.18 238.565 221.669 241.378C217.563 238.277 213.552 234.578 209.792 231.226C208.99 230.486 208.486 229.793 207.684 229.054C201.687 232.086 195.942 235.465 189.897 238.797C188.56 239.504 187.05 237.427 188.388 236.72C194.133 233.341 200.13 230.308 205.828 227.228C202.163 223.277 198.844 219.075 195.872 214.622C188.395 219.259 180.415 223.203 172.434 227.147C181.431 238.069 189.452 251.287 201.755 258.75C198.937 261.061 196.072 263.671 193.553 266.029C190.296 263.369 186.788 260.362 183.579 257.403C175.257 249.958 170.053 240.249 163.809 231.295L163.462 231.547C162.124 232.254 161.26 229.972 162.299 229.218C160.537 226.794 158.477 224.324 156.07 222.104C155.818 221.758 155.519 221.711 154.969 221.317C150.908 223.737 146.547 226.11 142.282 227.886C140.944 228.593 139.781 226.264 141.417 225.604C145.384 223.782 149.099 221.613 152.814 219.444C147.008 215.461 139.927 213.727 132.799 212.291C131.304 212.055 129.809 211.818 128.362 211.282C127.669 211.785 126.976 212.288 126.284 212.791C125.245 213.546 123.987 211.815 125.026 211.06L125.372 210.809C119.786 209.311 114.247 207.515 109.102 205.168C107.655 204.632 106.506 204.144 105.358 203.656C98.1322 208.639 90.9069 213.621 82.6127 215.678C81.0231 216.039 80.8038 213.553 82.3934 213.192C90.0423 211.34 95.6781 206.718 102.163 202.537C99.5199 201.812 96.7817 201.685 92.9573 202.611C89.4792 203.286 85.6547 204.212 82.1292 205.185C73.4887 207.493 65.1471 209.848 56.4593 212.455C49.66 214.748 44.5923 215.783 37.2747 215.543C35.7798 215.306 34.2375 215.368 32.491 214.785C32.7426 215.132 32.6479 215.729 32.8996 216.076C34.4394 221.834 32.7851 226.474 33.428 232.09L33.3807 232.389C40.7456 232.33 47.8588 231.925 55.1141 230.623C63.3136 229.164 72.5671 228.792 80.5623 226.688C91.4851 223.517 101.67 215.326 113.597 219.36C123.479 222.763 134.695 231.279 142.467 238.331C149.184 244.297 152.343 253.375 159.155 258.743C167.666 264.993 177.091 267.405 185.493 272.412C183.021 274.471 180.849 276.578 178.33 278.936C174.837 277.77 171.296 276.903 168.055 276.083C160.172 273.609 150.684 269.656 144.958 263.234C141.844 259.677 140.414 255.162 137.299 251.605C133.933 247.702 129.135 245.104 125.375 241.751C121.615 238.398 118.234 232.655 113.687 230.403C102.642 224.671 89.6241 233.332 79.095 235.953C61.6096 239.923 45.8384 246.616 28.7168 246.355C27.8845 241.934 27.0523 237.514 26.2201 233.093C26.2201 233.093 26.2201 233.093 26.5191 233.14L26.2674 232.794C23.4095 217.942 20.2525 203.044 17.4419 187.893C17.4893 187.594 17.2376 187.248 17.2849 186.949C14.8607 188.71 12.4365 190.47 10.0596 191.932C8.67436 192.938 7.16448 190.861 8.54976 189.855C11.2729 188.142 14.0435 186.13 16.515 184.07C15.1645 177.116 13.1688 170.367 11.173 163.617C9.0004 165.724 6.7805 168.13 4.60793 170.236C4.9692 171.825 5.37783 173.116 5.73911 174.705C5.14116 174.61 4.24421 174.468 3.69359 174.074C2.79665 173.932 1.8997 173.79 1.00275 173.648C-0.429857 174.953 -1.56346 176.305 -2.99606 177.61C-4.08235 178.663 -5.89121 176.539 -4.50594 175.533C-3.76597 174.731 -3.02601 173.929 -2.33337 173.426C-6.56646 173.062 -10.5006 172.745 -14.781 172.68C-14.4197 174.269 -13.7594 175.905 -13.6971 177.447C-12.4886 185.297 -9.64323 192.488 -7.44314 199.883C-7.23883 200.528 -7.08184 201.472 -6.87752 202.117C-0.755883 202.167 5.06678 202.17 11.1884 202.221C11.7067 204.754 11.8786 207.538 12.3969 210.071C6.76357 208.873 0.641946 208.822 -5.18071 208.819C-4.66245 211.352 -4.09684 213.586 -3.57857 216.119C-2.90333 219.596 -2.8734 223.277 -2.84346 226.958C-4.49292 219.957 -6.7877 213.16 -8.87815 207.008C-12.9644 194.106 -17.6486 181.11 -22.6318 168.067C-29.5905 175.236 -36.5492 182.406 -43.8068 189.528C-45.2395 190.833 -47.3946 188.959 -45.962 187.655C-41.2232 182.891 -36.1381 177.875 -31.3993 173.111C-35.9787 172.999 -40.5581 172.886 -45.0902 172.475C-49.3233 172.111 -54.0597 171.054 -58.796 169.998C-63.7242 175.957 -68.9513 181.869 -74.1784 187.781C-75.312 189.133 -77.1682 187.307 -76.0819 186.254C-71.2485 180.892 -66.3676 175.232 -61.7858 169.524C-71.6049 167.663 -81.4713 166.1 -90.1118 168.408C-93.5127 172.464 -96.9136 176.521 -100.613 180.53C-101.747 181.883 -103.902 180.01 -102.769 178.657C-100.501 175.953 -98.2341 173.248 -95.6679 170.591C-98.3437 172.006 -101.114 174.018 -103.429 177.021C-102.689 176.219 -104.263 178.421 -105.492 180.37C-109.035 185.324 -113.285 188.94 -116.529 193.94C-118.104 196.142 -120.513 199.743 -123.567 203.548C-123.662 204.146 -124.056 204.696 -124.103 204.995C-127.128 212.481 -128.468 219.009 -132.893 225.661C-133.727 227.06 -134.562 228.46 -135.349 229.56C-135.397 229.859 -135.444 230.158 -135.79 230.41C-138.389 235.206 -140.295 239.5 -142.139 245.335C-145.338 255.857 -148.459 269.761 -148.967 280.71C-149.57 292.256 -144.507 302.861 -144.465 314.203C-144.627 324.9 -147.275 335.816 -148.035 346.418C-148.984 358.216 -147.87 366.664 -145.388 378.086C-145.074 379.974 -144.713 381.563 -144.399 383.45C-137.313 373.544 -130.275 363.936 -123.189 354.029C-122.589 348.304 -121.689 342.625 -120.837 337.246C-119.938 331.568 -119.133 326.487 -120.028 320.524C-120.922 314.562 -123.108 309.008 -123.357 302.841C-123.935 292.946 -120.641 281.826 -118.529 272.357C-117.094 265.232 -114.415 257.997 -110.133 252.242C-105.062 245.386 -102.038 237.9 -97.613 231.248C-95.5974 228.198 -93.3451 223.653 -90.3852 220.445C-85.1407 210.553 -78.07 198.806 -66.4546 195.131C-60.0016 193.09 -52.4174 195.517 -45.8398 196.558C-36.8704 197.979 -27.8386 200.941 -18.8218 202.063C-18.2239 202.158 -17.9249 202.205 -17.3269 202.3C-16.5097 204.88 -15.6924 207.46 -15.1268 209.694C-19.1083 209.677 -23.0897 209.659 -26.6775 209.09C-42.6182 207.178 -63.3402 198.688 -75.07 212.761C-74.6764 212.211 -75.5583 213.909 -76.7393 215.56C-79.5422 219.712 -83.3517 222.478 -85.8556 226.677C-87.0839 228.627 -89.3511 231.331 -91.713 234.634C-91.8077 235.231 -92.154 235.483 -92.2487 236.081C-94.7376 242.12 -95.936 247.751 -99.5735 253.302C-100.361 254.403 -100.849 255.551 -101.636 256.651C-101.684 256.95 -101.731 257.249 -102.077 257.501C-104.235 261.448 -106.046 265.144 -107.402 269.831C-110.018 278.607 -112.761 290.121 -112.985 299.276C-113.555 308.683 -109.153 317.652 -109.424 327.106C-109.601 335.962 -111.965 345.085 -112.441 353.894C-112.615 356.93 -112.695 359.368 -112.775 361.806C-109.451 354.367 -105.529 347.023 -99.0915 343.141C-98.3988 342.638 -96.9986 343.473 -97.4396 344.322C-97.8333 344.872 -97.9279 345.47 -98.3216 346.02C-98.3689 346.319 -99.0142 346.523 -99.2659 346.177C-104.603 350.846 -107.391 356.838 -109.927 363.176C-110.51 364.922 -111.344 366.322 -112.226 368.02C-111.897 371.749 -110.971 375.572 -110.138 379.992C-107.562 390.817 -107.818 402.111 -104.251 412.48C-104.251 412.48 -104.298 412.779 -103.999 412.826C-98.2187 401.487 -92.7375 390.101 -87.2564 378.715C-87.7423 374.043 -86.1353 369.702 -85.6769 364.873C-84.2868 352.226 -88.0142 346.734 -93.4234 336.38C-95.2946 332.713 -97.0087 329.991 -97.243 325.665C-97.4599 317.359 -93.3963 309.118 -92.7163 300.954C-92.3202 294.584 -92.4274 287.52 -92.6293 281.055C-92.8935 273.048 -92.7665 270.311 -86.4057 263.046C-79.2577 254.681 -75.1942 246.441 -66.3793 241.097C-57.532 233.614 -51.6446 229.338 -38.2827 226.246C-28.0999 223.877 -20.0424 223.315 -10.3653 226.073C-9.43845 229.896 -8.81053 233.672 -8.18262 237.447C-12.1317 235.29 -16.0808 233.133 -20.5655 232.423C-29.5349 231.002 -40.961 233.481 -49.3499 236.135C-53.2216 237.36 -56.2438 239.026 -59.0617 241.337C-64.9341 247.453 -70.4129 253.019 -75.5303 260.174C-78.3332 264.325 -84.7563 270.048 -85.5136 274.829C-86.6023 281.703 -82.0278 293.456 -82.0152 301.117C-82.065 307.237 -84.2549 313.323 -84.6037 319.395C-84.8427 326.71 -82.122 330.817 -79.0872 336.812C-78.5839 337.505 -78.3796 338.15 -78.1753 338.795C-76.0027 336.688 -74.1292 334.534 -71.077 336.549C-66.9237 339.352 -70.1052 345.894 -71.5702 349.338C-72.1058 350.785 -72.5942 351.933 -73.1298 353.38C-72.5966 357.754 -73.0076 362.284 -74.8513 368.119C-76.0646 371.909 -76.0346 375.59 -75.7057 379.319C-72.6661 373.673 -69.3749 368.374 -66.6343 362.681C-63.0118 355.289 -61.4821 347.566 -59.3071 339.639C-60.0471 340.441 -60.787 341.243 -61.2753 342.391C-61.669 342.941 -62.1723 342.249 -62.125 341.95C-61.1483 339.654 -60.062 338.6 -58.2831 337.044C-57.5905 336.541 -56.7882 337.281 -56.8829 337.878C-58.1609 345.947 -60.0843 354.221 -63.4078 361.66C-66.7314 369.099 -71.2036 376.049 -74.7788 383.142C-72.925 390.788 -68.8837 398.168 -66.432 405.909C-66.0383 405.359 -65.6446 404.808 -65.2037 403.959C-59.8495 395.31 -53.8974 386.756 -49.6445 377.319C-47.7859 373.325 -46.5253 369.235 -45.2646 365.146C-46.0819 362.566 -46.8991 359.985 -48.0154 357.358C-54.6031 342.835 -62.2124 325.086 -63.0398 309.025C-63.7425 296.046 -57.773 283.512 -51.9929 272.173C-50.6699 269.625 -47.4285 270.445 -46.8629 272.679C-33.9072 262.477 -12.5973 257.58 -0.0250993 261.41C8.75501 264.026 15.7562 268.198 25.5129 268.518C37.1109 268.823 44.7299 263.29 55.3063 260.37C62.0583 258.376 66.7 260.03 73.3249 260.773C83.8839 261.833 90.9673 257.747 101.055 255.974C112.088 254.045 120.125 263.284 126.905 270.791C131.828 276.473 134.517 282.719 141.565 286.593C148.913 290.514 157.82 290.393 165.215 294.015C162.696 296.373 160.13 299.03 157.611 301.388C156.211 300.554 155.062 300.066 153.315 299.483C148.123 297.435 142.946 297.228 137.848 294.582C127.952 289.338 123.345 279.724 115.967 272.122C109.093 265.213 106.37 266.926 97.8863 270.178C92.3303 272.361 88.2692 274.782 82.1002 275.03C72.8468 275.403 65.2003 271.434 55.8671 274.245C49.1151 276.239 43.6687 279.666 36.5081 280.37C24.6262 281.858 14.1941 278.061 3.79452 272.125C-10.0036 264.425 -43.32 267.726 -51.0385 285.498C-51.4794 286.347 -51.5741 286.945 -52.0151 287.794C-52.0624 288.093 -52.1098 288.392 -52.1571 288.69C-52.2045 288.989 -52.2045 288.989 -52.2045 288.989C-54.0481 294.824 -55.6401 301.006 -55.2015 305.977C-54.1998 319.003 -48.509 333.384 -42.6912 345.028C-41.7792 347.01 -40.8673 348.993 -39.6564 351.023C-39.6091 350.724 -39.2628 350.472 -39.2154 350.174C-38.2861 348.176 -37.1051 346.525 -36.1758 344.528C-33.5299 339.433 -39.6989 339.681 -42.6115 342.589C-43.0051 343.14 -43.8074 342.4 -43.4137 341.85C-41.4455 339.098 -35.9817 331.692 -32.6006 337.435C-31.3897 339.465 -32.4137 342.06 -33.343 344.057C-34.8553 347.801 -36.5719 350.899 -38.3359 354.296C-36.3551 359.205 -34.3742 364.114 -32.7397 369.274C-29.6528 363.33 -26.6133 357.684 -23.8254 351.692C-23.8254 351.692 -23.8254 351.692 -23.778 351.393C-24.0297 351.047 -23.9823 350.748 -23.636 350.497C-22.7067 348.499 -21.8247 346.801 -20.5964 344.851C-28.1908 328.943 -36.8241 313.789 -16.2044 303.576C-14.5202 302.617 -13.1673 303.75 -12.507 305.387C-3.04682 299.839 11.227 298.73 20.4008 300.795C32.2654 303.287 41.4715 303.213 53.6525 301.773C58.9719 301.083 64.5429 300.74 69.9096 299.752C77.8575 297.947 83.7922 293.373 91.1895 291.175C107.621 286.118 123.397 304.548 133.732 314.763C141.157 322.066 153.037 326.398 158.588 335.855C163.588 344.919 161.932 355.379 162.557 364.975C162.948 370.245 164.977 374.855 163.479 380.439C162.423 385.174 158.581 390.079 156.077 394.278C149.604 406.12 149.899 417.808 146.368 430.423C143.563 440.394 140.725 452.506 134.222 460.666C126.586 470.179 113.914 478.589 102.959 483.9C85.0629 492.4 63.8328 494.859 45.9437 485.898C35.1504 480.512 27.8028 476.591 20.5051 466.551C13.459 456.857 11.9988 448.661 9.86346 436.987C8.199 428.146 6.73889 419.949 3.18587 411.421C0.749106 405.521 -2.72662 400.375 -4.81707 394.223C-6.09028 390.651 -7.31615 386.781 -8.24304 382.958C-9.42399 384.609 -10.6523 386.559 -11.8332 388.21C-15.8171 394.012 -20.0526 399.469 -23.9891 404.972C-23.2042 409.692 -22.1677 414.758 -21.3828 419.478C-19.3271 433.589 -13.9976 446.381 -9.65972 459.629C-5.57348 472.531 -3.62745 485.399 9.71466 492.108C21.6566 497.982 34.6374 503.102 47.6033 506.381C59.4205 509.171 73.0814 506.127 85.2774 506.527C100.809 507.149 110.188 509.859 121.083 497.186C124.877 492.579 130.072 488.807 133.867 484.2C138.795 478.24 140.529 471.162 145.96 465.895C150.998 461.179 158.096 458.933 162.583 453.823C167.369 448.76 169.103 441.682 171.341 435.297C175.957 421.629 179.079 407.725 179.51 393.394C179.654 386.677 180.24 379.111 180.085 372.347C179.774 364.638 177.526 357.543 177.215 349.834C177.122 344.612 177.832 340.129 178.936 335.095C166.85 335.938 156.779 333.731 153.62 324.652C150.632 318.358 156.694 311.047 162.472 305.528ZM235.169 322.557C232.336 323.027 227.867 324.157 222.405 325.743C223.237 330.164 223.173 334.443 222.51 338.627C221.406 343.66 222.144 348.679 222.535 353.949C228.547 352.757 234.512 351.863 240.476 350.97C240.524 350.671 240.272 350.325 240.32 350.026C239.801 347.493 239.141 345.856 239.126 344.016C237.444 339.154 238.045 333.428 238.299 327.954C235.812 328.173 233.373 328.093 230.886 328.312C229.643 328.421 229.329 326.534 230.572 326.424C233.059 326.205 235.844 326.034 238.284 326.114C238.174 324.871 238.363 323.675 238.254 322.433C237.058 322.243 236.114 322.4 235.169 322.557ZM246.847 320.424C246.909 321.965 246.673 323.46 246.389 325.253C255.988 324.629 265.541 324.304 275.093 323.978C275.22 321.241 275.395 318.205 275.569 315.169C266.079 317.036 256.29 318.856 246.847 320.424ZM285.358 313.35C284.837 316.637 283.97 320.176 283.749 323.511C292.058 323.296 300.115 322.734 308.425 322.518C307.891 318.144 308.003 313.567 308.115 308.989C300.514 310.542 292.96 311.797 285.358 313.35ZM339.875 303.909C332.966 304.96 326.057 306.01 319.101 307.359C318.296 312.44 317.192 317.473 317.332 322.397C318.276 322.24 318.874 322.335 319.818 322.178C322.604 322.006 334.092 321.069 343.455 321.939C342.984 319.107 342.513 316.275 341.696 313.695C341.273 310.564 340.597 307.087 339.875 303.909ZM346.435 345.694C345.396 346.449 344.656 347.251 343.916 348.052C343.869 348.351 342.972 348.209 343.366 347.659C343.949 345.913 344.988 345.159 346.326 344.451C346.263 342.91 346.201 341.368 345.84 339.779C337.987 340.986 330.275 341.297 322.612 341.308C323.272 342.944 323.885 344.88 324.246 346.469C326.147 353.816 327.308 361.965 326.676 369.83C332.845 369.582 339.061 369.035 345.135 369.384C345.372 367.89 345.656 366.097 345.892 364.602C346.54 358.578 346.637 352.16 346.435 345.694ZM344.614 372.672C339.437 372.464 334.511 372.603 329.239 372.994C328.295 373.15 327.398 373.008 326.454 373.165C326.359 373.763 326.217 374.659 326.122 375.257C323.962 385.025 319.458 394.115 317.597 403.93C321.783 404.593 326.016 404.957 330.643 404.771C332.83 404.504 334.671 404.49 336.512 404.475C338.516 393.763 342.312 383.336 344.614 372.672ZM335.536 406.771C332.152 406.848 329.021 407.271 325.637 407.348C322.6 407.173 319.862 407.046 316.919 406.273C315.547 414.94 316.314 423.64 314.642 432.26C314.216 434.949 313.491 437.592 312.766 440.234C319.344 441.276 326.866 442.161 333.899 444.194C333.259 432.757 332.917 421.368 334.716 410.011C335.204 408.863 335.346 407.967 335.536 406.771ZM334.276 447.623C326.896 445.842 319.563 443.761 312.136 442.279C309.914 450.505 307.487 458.086 307.515 467.587C307.373 468.484 307.577 469.129 307.482 469.727C308.678 469.916 310.173 470.153 311.369 470.342C316.751 471.195 321.582 471.653 326.901 470.964C330.033 470.541 331.874 470.526 334.817 471.299C335.103 463.685 334.839 455.678 334.276 447.623ZM326.839 506.185C332.525 495.444 334.575 484.434 335.131 473.187C330.347 472.429 325.83 473.858 320.904 473.997C316.923 473.979 312.784 473.017 308.598 472.354C308.299 472.307 308.001 472.259 307.701 472.212C307.51 479.228 306.169 485.756 304.136 492.786C303.601 494.233 303.411 495.429 302.876 496.876C308.462 498.373 313.559 501.018 319.145 502.516C319.193 502.217 318.988 501.572 319.178 500.377C319.272 499.779 319.87 499.874 320.122 500.22C320.578 501.211 321.333 502.25 321.789 503.241C322.292 503.933 321.552 504.735 320.907 504.939C316.973 504.623 313.873 502.906 310.428 501.442C307.879 500.119 305.235 499.394 302.245 498.92C299.425 507.051 296.306 515.135 292.636 522.826C295.327 523.252 298.065 523.379 300.552 523.16C303.935 523.084 307.067 522.661 310.702 522.93C312.197 523.167 315.187 523.64 318.129 524.413C320.665 518.075 323.752 512.13 326.839 506.185ZM283.907 587.617C290.82 574.925 299.795 564.705 305.607 551.227C309.419 542.64 313.184 534.352 316.995 525.765C316.398 525.67 315.501 525.528 314.903 525.433C309.222 524.534 303.903 525.223 298.08 525.22C295.641 525.14 293.501 525.107 291.109 524.728C288.762 529.871 285.864 534.62 282.919 539.668C286.602 539.639 290.284 539.609 293.967 539.58C294.014 539.281 294.061 538.982 294.36 539.03C296.501 539.062 297.744 538.953 299.884 538.985C301.426 538.923 301.048 541.314 299.804 541.424C293.541 542.27 287.671 542.565 281.596 542.216C281.549 542.515 281.203 542.766 281.155 543.065C274.967 553.114 269.675 563.305 262.778 572.016C267.467 573.371 271.857 574.679 276.547 576.035C277.145 576.129 277.002 577.026 276.357 577.23C271.227 576.724 266.192 575.62 260.905 574.17C256.764 579.029 252.025 583.792 246.484 587.817C245.445 588.571 244.06 589.577 242.722 590.284C252.651 593.389 263.035 597.484 270.996 603.34C276.285 598.97 280.473 593.813 283.907 587.617ZM140.753 651.642C136.976 652.27 133.545 652.645 130.067 653.32C130.475 654.61 130.884 655.9 131.293 657.19C132.88 662.65 135.112 667.905 136.998 673.412C166.366 667.953 194.412 659.222 218.874 644.102C222.29 641.886 226.052 639.418 229.515 636.903C226.981 637.421 224.495 637.64 221.709 637.812C221.961 638.158 221.914 638.457 221.567 638.708C214.546 644.336 204.553 645.51 196.054 646.922C183.181 648.865 170.26 651.108 157.59 653.696C156.3 654.105 156.033 651.918 157.324 651.51C168.702 649.329 180.333 647.495 191.664 645.613C201.406 644.093 211.1 642.871 219.821 638.125C204.901 639.438 189.621 639.163 174.53 637.692C172.751 639.248 170.626 641.056 168.296 642.219C159.576 646.965 150.243 649.775 140.753 651.642ZM79.6657 642.58C81.0834 639.434 82.6903 635.094 84.3447 630.454C87.5736 623.613 90.7551 617.07 93.1344 609.788C94.9283 610.072 96.7222 610.357 98.4688 610.94C106.227 610.33 113.829 608.777 121.682 607.57C132.368 605.893 144.691 603.555 153.239 596.025C158.97 590.805 163.504 585.396 169.833 580.272C172.304 578.212 175.027 576.499 177.798 574.487C177.2 574.392 176.602 574.297 175.752 573.857C174.305 573.321 174.636 571.229 176.131 571.466C177.579 572.001 178.775 572.191 180.222 572.726C188.093 567.539 196.514 562.746 204.385 557.559C191.718 554.327 178.956 551.693 166.526 546.967C161.127 550.095 155.681 553.521 150.737 557.64C145.747 562.058 142.157 567.31 136.411 570.689C130.367 574.021 123.568 576.314 116.612 577.663C100.511 580.627 86.5689 579.644 70.5335 578.33C62.633 579.836 54.3861 581.593 46.3759 581.857C42.3945 581.839 38.3184 582.418 34.2896 582.699C28.5442 586.078 22.8462 589.159 16.8965 591.893C9.60888 595.334 1.40934 596.792 -5.8783 600.233C-7.21621 600.941 -8.08081 598.659 -6.74289 597.952C-1.09217 595.171 5.2188 594.026 11.1212 591.591C17.3225 589.203 23.3669 585.871 29.4112 582.54C26.972 582.46 24.8318 582.427 22.44 582.048C18.5532 581.432 15.1074 579.968 11.3627 578.455C5.02175 575.919 -0.0459746 576.955 -6.37191 576.259C-12.9969 575.516 -17.0705 570.276 -22.7189 567.237C-27.8189 570.412 -32.164 574.625 -36.4619 578.54C-40.0197 581.653 -43.6722 585.363 -47.9227 588.979C-47.0257 589.121 -46.4751 589.514 -45.5781 589.657C-37.0497 591.926 -31.1497 595.312 -23.8496 599.532C-16.5494 603.751 -10.6944 601.615 -3.21981 602.799C2.16186 603.651 6.36258 606.155 11.6022 607.904C22.0342 611.701 36.7491 609.742 48.0007 610.299C48.5987 610.393 49.244 610.189 49.543 610.237C55.682 606.307 61.0661 601.339 64.295 594.498C64.3897 593.9 65.2393 594.341 65.192 594.64C63.5526 601.12 59.0655 606.23 53.5718 609.956C64.3675 609.521 75.0535 607.844 85.7072 608.306C84.2896 611.451 82.573 614.549 81.1554 617.694C78.7162 617.614 76.0253 617.188 73.5861 617.108C63.797 618.928 54.2596 621.094 44.7071 621.419C40.0804 621.605 35.1073 622.043 30.4806 622.229C23.1456 625.969 16.015 630.354 8.27141 632.804C3.40798 634.484 -1.91136 635.174 -6.97907 636.209C-2.58902 637.517 1.06107 639.627 5.40379 641.234C17.2833 645.566 34.1857 643.342 47.2786 643.884C54.8952 644.171 62.3548 643.514 69.8144 642.858C68.0031 646.553 66.1444 650.548 64.2858 654.543C57.3295 655.892 50.4206 656.942 43.6537 657.096C32.9053 657.231 21.2276 659.365 10.4169 657.959C5.03524 657.106 0.189243 654.807 -5.05043 653.058C-13.7359 649.844 -20.9912 651.146 -29.7089 650.072C-39.9217 648.76 -45.9139 640.152 -55.1026 636.246C-67.1865 631.269 -79.3501 628.729 -90.851 622.006C-96.7509 618.621 -102.556 614.638 -108.361 610.655C-107.826 609.208 -107.337 608.06 -107.101 606.565C-105.935 603.074 -104.721 599.283 -103.76 595.147C-98.6945 599.932 -91.8976 603.459 -85.7934 607.489C-77.7856 613.047 -69.2895 617.456 -59.9114 620.167C-50.187 622.626 -43.4848 626.751 -35.036 631.459C-27.1852 636.072 -20.7796 634.33 -13.2577 635.215C-8.83526 634.383 -4.41285 633.552 0.00956898 632.721C9.20071 630.807 16.8347 627.114 25.1612 622.918C22.0767 623.042 19.0396 622.868 16.0498 622.394C11.266 621.637 6.97067 619.731 2.62795 618.124C-4.86156 615.1 -11.1725 616.245 -18.9934 615.312C-28.0102 614.19 -32.9485 606.668 -40.9886 603.25C-47.0306 600.762 -52.8682 598.918 -58.9575 596.728C-60.2954 597.435 -61.586 597.844 -62.9239 598.551C-65.5051 599.367 -68.4152 596.456 -66.4943 594.003C-52.7387 590.361 -25.5517 567.707 -10.8793 554.407C-9.8254 555.493 -9.16515 557.129 -10.3461 558.78C-11.1334 559.881 -11.8734 560.683 -12.9123 561.437C-12.0627 561.878 -11.2131 562.319 -10.1119 563.106C-3.91294 566.539 0.651505 564.811 6.93011 565.806C11.4149 566.516 15.0649 568.626 19.1087 570.185C27.4951 573.352 39.3771 571.864 48.5359 572.089C48.8822 571.837 49.1812 571.885 49.5275 571.633C50.8655 570.926 69.2502 561.277 64.4988 558.38C64.2472 558.034 64.3419 557.436 64.6408 557.484C65.5378 557.626 66.3874 558.067 67.2844 558.209C67.8823 558.303 68.0866 558.948 68.0393 559.247C65.645 564.689 60.4503 568.461 54.7049 571.84C67.0428 571.344 79.1142 568.66 91.1357 572.096C97.6511 571.596 103.663 570.404 110.273 569.306C119.118 567.644 129.505 565.919 136.322 559.646C141.013 555.181 145.059 550.92 150.002 546.801C161.573 537.605 175.109 531.477 186.632 522.58C198.155 513.682 204.912 500.047 212.078 487.703C212.912 486.303 213.747 484.903 214.581 483.504C212.583 482.575 210.286 481.598 208.288 480.669C207.139 480.181 208.069 478.183 209.217 478.671C211.514 479.648 213.513 480.577 215.81 481.554C219.779 473.911 223.543 465.623 225.168 457.302C222.823 456.624 220.825 455.695 218.528 454.718C217.08 454.183 218.009 452.186 219.457 452.721C221.455 453.65 223.501 454.281 225.546 454.911C225.783 453.417 226.02 451.922 226.209 450.727C226.904 444.404 225.758 438.095 226.752 431.819C221.669 431.014 216.885 430.256 211.897 428.853C211.267 430.898 210.936 432.99 210.856 435.428C210.57 443.042 206.003 450.59 206.11 457.653C206.247 468.398 207.127 472.52 198.436 480.947C186.141 492.785 172.241 503.144 160.999 516.069C151.978 526.588 147.411 534.137 133.356 537.731C117.067 541.891 104.129 548.114 87.2113 548.498C82.8836 548.731 78.9021 548.713 74.5744 548.947C67.1124 555.424 57.9835 558.88 48.3041 561.942C47.0135 562.351 46.1016 560.368 47.3922 559.96C55.781 557.306 63.6193 554.258 70.5456 549.228C59.4509 549.615 48.3089 550.302 37.3562 549.792C18.787 548.996 -4.16988 541.071 -21.633 529.42C-31.8008 533.631 -42.0633 538.439 -52.4354 542.004C-50.7362 542.886 -49.3833 544.019 -47.7314 545.2C-41.9261 549.183 -36.0262 552.568 -28.9453 554.303C-27.1987 554.886 -25.7512 555.421 -24.0046 556.004C-34.5361 564.446 -46.8465 574.444 -56.5907 581.785C-52.6866 578.421 -48.5781 575.702 -44.6739 572.337C-40.7698 568.973 -37.212 565.86 -33.0562 562.842C-39.1455 560.652 -45.282 558.761 -51.182 555.376C-55.6817 552.825 -60.0867 549.677 -64.4918 546.528C-69.4025 548.508 -74.3132 550.487 -79.1767 552.168C-79.351 555.203 -81.1149 558.6 -84.0898 559.967C-85.0814 560.423 -86.4667 561.429 -87.6003 562.781C-82.7717 569.061 -75.1252 573.029 -68.2187 577.799C-65.1665 579.814 -62.1144 581.829 -59.015 583.546C-64.2097 587.318 -68.6172 589.99 -71.2457 591.106C-71.7963 590.712 -72.3943 590.617 -72.6459 590.271C-79.6471 586.099 -87.1516 581.234 -93.6645 575.913C-94.2151 575.52 -94.7184 574.827 -95.568 574.386C-98.1193 578.884 -100.277 582.831 -101.6 585.379C-107.774 597.268 -112.657 608.749 -116.234 621.662C-117.007 624.603 -119.306 629.447 -119.481 632.483C-120.096 636.368 -118.477 639.688 -118.793 643.621C-118.84 643.92 -118.888 644.219 -118.935 644.518C-104.272 654.499 -87.1057 660.281 -67.7193 663.658C-34.9259 669.465 -1.85099 679.299 31.8417 679.427C39.8046 679.463 47.7674 679.499 56.0766 679.283C55.9969 681.721 55.9645 683.861 56.1838 686.346C56.4504 688.533 59.4403 689.006 60.3696 687.009C61.6925 684.461 62.7165 681.866 63.7405 679.271C64.6848 679.115 65.5817 679.257 66.526 679.1C68.387 669.285 70.6567 660.76 74.2169 651.827C74.2169 651.827 74.2169 651.827 73.918 651.779C75.0839 648.288 76.5489 644.843 78.0139 641.399C79.0678 642.485 79.3668 642.532 79.6657 642.58Z" fill="#DCDAD1"/>
<path d="M11.3395 243.183C7.52221 241.948 3.60758 241.328 -0.209701 240.094C-0.480384 235.956 -1.3533 231.723 -2.2749 227.797C3.95138 229.413 10.5275 230.77 16.8511 231.771C17.9765 236.359 19.1018 240.947 20.2272 245.535C17.5171 245.106 14.5545 244.322 11.3395 243.183Z" fill="#DCDAD1"/>
<path d="M102.028 377.222C101.935 383.62 98.8007 389.842 97.5103 396.05C96.2671 401.961 97.5146 407.655 96.9176 413.363C96.0683 418.725 90.2091 432.455 84.0933 434.234C77.3784 435.919 69.777 427.692 65.8502 423.405C59.0531 415.916 52.8551 408.521 50.4709 398.372C49.1291 393.273 48.2284 387.328 48.7309 382.217C49.4694 375.615 52.512 375.792 55.8991 369.916C54.307 370.274 52.9673 370.978 52.4319 372.42C51.7549 374.756 48.1605 374.187 48.8375 371.851C50.1278 365.642 55.0148 365.806 60.548 365.766C68.9186 365.259 73.2207 361.36 80.4711 358.233C84.443 356.419 87.3276 355.655 91.3323 357.511C97.639 360.342 102.214 370.228 102.028 377.222ZM69.7085 369.965C67.4702 370.527 61.779 369.625 57.444 369.855C57.3968 370.153 57.6963 370.2 57.6491 370.498C57.163 377.445 53.6179 382.38 53.9832 389.767C54.7281 400.573 59.4756 407.432 66.9189 414.719C69.8364 417.624 73.2585 421.22 77.3577 422.48C81.1573 423.692 78.2255 424.755 82.6385 422.094C83.3319 421.594 87.0022 413.93 87.0965 413.334C89.5379 407.613 89.3306 401.167 90.6682 394.661C92.5412 386.713 96.3222 380.288 93.6078 372.224C88.7473 358.323 78.3622 367.671 69.7085 369.965Z" fill="#DCDAD1"/>
</g>
<defs>
<clipPath id="clip0_158_1995">
<rect width="667" height="627" fill="white" transform="matrix(-0.156434 0.987688 0.987688 0.156434 -194 0)"/>
</clipPath>
</defs>
</svg>
