<svg width="405" height="546" viewBox="0 0 405 546" fill="none" xmlns="http://www.w3.org/2000/svg">
<g opacity="0.36" clip-path="url(#clip0_158_1990)">
<path d="M245.106 493.182C246.617 497.14 248.742 500.781 250.684 504.67C250.946 507.722 251.243 510.989 251.505 514.04C275.127 513.834 298.443 511.687 321.359 505.628C344.889 499.25 370.237 498.77 392.652 488.15C394.922 487.128 397.158 485.89 399.393 484.652C403.503 486.873 410.245 483.375 409.142 477.806C408.005 472.021 405.153 465.182 403.823 460.974C401.618 454.033 399.198 447.125 396.959 439.969C393.674 429.001 387.223 418.976 381.021 409.133C390.365 412.293 399.595 416.133 408.53 420.904C416.716 425.13 424.881 432.011 435.79 432.493C436.789 433.218 437.538 433.762 438.538 434.488C449.391 406.7 454.283 374.774 466.737 348.721C469.697 342.287 470.456 337.306 471.373 330.533C472.437 323.295 474.682 316.532 475.315 309.362C476.513 294.592 480.685 280.454 480.952 265.389C481.188 258.503 483.251 251.99 483.272 245.138C483.326 238.502 481.189 231.992 480.165 225.526C479.289 218.595 479.887 211.21 478.761 204.098C477.771 197.847 474.874 192.12 472.84 186.257C472.033 183.954 469.275 183.286 466.971 184.093C466.834 183.231 466.732 182.585 466.595 181.722C465.399 169.982 463.329 159.705 459.579 148.59C451.942 125.498 440.605 102.771 424.603 84.096C417.562 75.9323 409.806 67.44 400.7 61.5917C391.094 55.3806 376.598 54.5836 365.45 52.5936C351.543 49.9358 338.433 50.9077 324.562 52.6628C318.273 53.4378 311.872 54.8936 305.447 54.8066C298.556 54.5724 291.711 53.2264 285.002 52.7425C272.049 51.9219 260.468 45.8028 248.105 43.1214C234.562 39.9643 220.201 35.832 206.398 38.0182C182.493 42.0252 158.48 59.3051 138.983 72.9976C130.426 78.9923 121.768 88.5378 115.312 96.63C107.041 107.219 97.6679 116.436 88.1134 125.903C83.3362 130.636 78.8429 135.766 74.5994 141.078C75.5986 141.803 76.632 142.744 77.6312 143.47C79.3456 144.524 81.0601 145.578 82.7746 146.632C87.7831 153.129 95.0382 157.061 101.567 161.992C102.635 163.149 103.486 164.339 104.338 165.53C105.621 166.652 106.87 167.559 108.154 168.681C108.335 168.432 108.766 168.363 108.948 168.114C112.729 171.05 116.544 174.201 120.11 177.171C119.928 177.421 119.747 177.67 119.35 177.954C121.882 179.983 124.414 182.013 127.162 184.008C127.377 183.973 127.343 183.758 127.559 183.724C129.376 185.424 130.977 187.159 132.578 188.894C137.2 194.348 142.912 198.303 148.51 202.94C153.324 206.817 157.379 211.477 162.227 215.569C164.26 217.236 182.95 231.95 185.186 230.712C183.166 231.916 175.547 228.483 173.004 227.781C167.022 226.298 162.151 224.86 156.463 222.447C145.337 217.803 132.169 217.016 120.453 214.232C114.47 212.75 108.613 213.457 102.698 212.405C96.7839 211.353 90.9143 209.19 84.7841 208.173C77.2916 206.929 68.5501 204.779 60.2973 204.319C58.9009 203.877 57.2547 203.254 55.8583 202.812C53.0997 202.145 50.341 201.477 47.5823 200.809C47.2084 202.636 46.8345 204.463 46.4605 206.289C43.8958 208.242 43.148 211.895 44.4885 214.776C44.0463 216.171 43.854 217.748 43.4117 219.144C39.8634 231.636 37.1776 243.991 37.0349 257.049C37.0055 269.425 40.8348 279.644 43.3934 291.611C46.6455 306.561 45.0955 320.504 43.6821 335.309C42.7217 347.391 43.3843 358.553 48.0312 369.747C50.281 375.577 53.5409 380.804 55.9722 386.384C59.1079 393.62 60.3368 401.379 62.4283 409.001C65.5315 420.219 71.7781 428.95 76.5042 439.248C82.1503 451.167 90.9167 459.058 100.898 467.639C118.794 482.921 137.11 499.462 159.918 506.675C172.485 510.649 185.824 512.513 199.458 513.447C200.969 517.405 205.794 519.955 209.63 516.254C212.887 513.087 216.303 512.325 218.027 507.854C220.193 501.988 219.135 495.307 221.051 489.26C223.772 481.317 226.641 472.909 230.293 465.261C230.804 464.297 231.28 463.117 231.791 462.152C233.552 466.292 235.96 470.329 236.562 471.338C240.957 478.153 242.299 485.231 245.106 493.182ZM402.07 82.8045C422.078 98.8563 435.163 122.853 444.412 146.353C448.912 158.012 452.765 169.774 454.926 182.024C455.711 186.981 457.506 191.336 459.154 196.157C461.711 203.926 462.758 211.934 464.237 219.874C464.305 220.305 464.408 220.952 464.692 221.349C464.795 226.193 465.331 230.968 465.866 235.744C466.811 243.106 465.837 248.121 464.091 255.246C462.074 264.844 462.816 275.11 461.049 284.89C458.647 297.642 457.789 310.371 454.888 322.761C453.811 327.129 454.096 331.723 453.019 336.091C451.648 341.39 447.767 346.202 445.681 351.172C441.689 360.862 438.73 371.493 436.384 381.807C434.185 391.655 429.943 401.164 427.563 411.261C426.86 413.803 426.158 416.344 425.239 418.92C424.456 418.16 423.456 417.435 422.673 416.675C418.108 412.98 413.328 409.318 408.003 406.406C406.538 405.533 404.858 404.695 403.393 403.822C403.722 403.107 404.085 402.608 404.414 401.893C394.015 400.447 383.218 395.088 373.954 391.032C373.84 391.712 373.727 392.393 373.398 393.108C372.751 393.211 372.07 393.098 371.207 393.234C367.166 391.444 363.339 389.62 359.332 388.045C359.661 387.331 359.956 386.4 360.25 385.47C358.854 385.028 357.457 384.586 356.277 384.111C355.096 383.635 353.949 383.375 352.769 382.899C352.44 383.614 351.895 384.363 351.566 385.078C344.05 382.291 336.716 379.255 329.382 376.219C329.563 375.97 329.961 375.686 330.142 375.436C328.496 374.813 326.884 374.406 325.238 373.783C324.806 373.851 324.625 374.101 324.194 374.169C320.901 372.923 317.609 371.677 314.135 370.681C311.376 370.013 307.823 369.913 305.541 368.066C304.258 366.943 302.203 367.931 302.011 369.508C301.57 375.101 305.362 376.71 310.051 378.398C310.982 378.692 311.913 378.986 312.878 379.496C312.265 379.814 311.437 380.166 310.79 380.269C301.823 383.677 291.721 385.498 282.197 386.786C265.341 389.235 246.136 393.602 229.379 388.303C221.001 385.653 208.399 381.463 202.744 375.068C196.27 367.698 190.841 359.942 183.79 353.105C176.238 345.906 167.689 342.179 165.154 331.755C164.699 330.281 164.642 328.522 164.369 326.798C163.425 323.634 161.188 320.674 160.892 317.407C160.516 315.036 161.264 311.383 160.854 308.797C160.786 308.366 160.684 307.719 160.615 307.288C161.228 306.97 162.057 306.618 162.67 306.3C163.498 305.948 162.828 304.508 161.999 304.86C161.386 305.178 160.774 305.496 160.127 305.598C158.217 297.727 155.217 291.353 157.337 282.401C159.127 274.164 156.946 268.765 156.08 260.507C155.419 253.542 155.973 247.269 153.984 240.293C153.813 239.216 152.609 237.197 152.995 238.241C152.927 237.809 152.859 237.378 152.825 237.163C157.445 238.419 162.316 239.857 167.333 240.83C167.368 241.046 167.368 241.046 167.402 241.261C169.164 249.598 168.247 256.371 167.819 264.834C167.119 275.77 170.007 287.022 171.714 297.798C173.42 308.574 176.126 320.076 180.966 329.693C182.84 333.151 185.112 336.327 188.143 338.718C193.741 343.355 196.581 347.324 200.658 353.527C203.566 357.927 208.528 361.338 211.833 365.454C215.069 369.139 216.943 372.598 221.848 374.252C229.795 376.97 240.011 374.468 247.911 374.1C258.218 373.572 267.867 374.474 277.765 371.36C288.491 367.894 299.035 364.677 309.204 359.09C317.137 354.741 319.529 347.513 321.751 339.208C324.902 327 328.735 314.904 330.524 302.47C330.558 302.686 330.808 302.867 330.842 303.082C331.444 304.092 333.316 303.353 332.714 302.344C332.112 301.335 331.545 300.541 330.943 299.532C332.109 292.94 333.81 286.927 335.658 280.448C335.692 280.664 335.942 280.845 335.976 281.06C338.555 286.175 340.883 291.109 343.462 296.223C345.405 300.113 347.665 304.616 351.775 306.837L351.991 306.802C351.765 308.164 351.322 309.559 350.665 310.989C348.759 315.71 345.639 319.739 344.199 324.606C341.841 332.049 343.603 340.386 342.607 348.055C345.003 349.223 347.399 350.39 349.794 351.557C353.321 341.719 351.58 330.728 355.754 320.788C358.022 315.568 359.178 310.304 360.3 304.824C362.072 307.636 363.843 310.448 365.581 313.045C366.183 314.054 367.556 312.953 366.954 311.944C364.899 308.735 362.843 305.526 360.787 302.316C361.682 298.198 362.577 294.079 363.904 289.893C364.346 288.497 365.004 287.067 365.662 285.638C369.331 293.452 373.432 301.197 378.724 308.091C378.022 310.633 377.353 313.39 376.684 316.147C375.12 323.023 375.134 330.09 372.889 336.852C371.12 342.435 367.206 347.032 364.722 352.285C363.882 353.965 363.043 355.644 362.204 357.324C364.349 358.309 366.711 359.261 368.857 360.247C371.307 354.777 373.075 349.195 376.025 344.088C378.793 339.231 380.856 332.719 382.194 327.204C384.087 319.614 385.764 312.058 387.872 304.433C389.868 297.489 391.534 291.261 391.951 284.125C392.189 281.436 392.676 278.929 393.345 276.172C393.629 276.569 393.697 277 393.947 277.181C397.832 284.961 401.933 292.707 406.431 300.168C406.249 300.418 406.317 300.849 406.136 301.099C403.562 308.576 401.272 316.45 399.629 324.222C397.623 332.493 397.841 340.854 395.154 349.012C393.056 355.309 388.813 360.621 385.75 366.408C386.681 366.702 387.362 366.815 388.293 367.11C389.69 367.551 389.1 369.412 387.772 369.402C386.659 369.357 385.728 369.062 384.616 369.018C383.958 370.448 383.085 371.911 382.427 373.341C377.499 370.145 372.061 367.913 366.588 365.466C366.77 365.217 366.917 364.751 367.099 364.502C364.737 363.55 362.376 362.599 360.014 361.647C359.833 361.897 359.651 362.146 359.685 362.362C355.428 360.606 351.023 359.315 346.947 357.31C347.31 356.81 347.492 356.561 347.639 356.096C345.493 355.11 343.597 354.306 341.451 353.32C341.451 353.32 341.486 353.535 341.27 353.57C341.27 353.57 341.27 353.57 341.304 353.785C341.304 353.785 341.304 353.785 341.054 353.604C339.272 352.119 337.093 355.115 338.876 356.6C339.126 356.781 339.376 356.963 339.376 356.963C336.868 360.674 332.681 363.546 329.424 366.713C331.286 367.302 333.182 368.106 335.044 368.695C337.03 367.276 338.981 365.641 340.718 364.041C341.841 362.758 343.18 361.441 344.519 360.125C348.629 362.346 352.818 363.67 357.405 364.711C357.62 364.677 357.87 364.859 358.086 364.825C357.904 365.074 357.723 365.324 357.575 365.789C355.284 369.466 354.752 373.085 354.038 376.954C356.433 378.121 358.579 379.107 360.975 380.274C360.941 380.058 361.088 379.593 361.054 379.377C361.631 374.647 363.276 371.072 365.352 367.429C370.79 369.661 375.899 372.608 381.009 375.554C379.443 378.232 377.912 381.126 376.131 383.838C375.767 384.338 375.439 385.052 375.291 385.518C378.334 386.582 381.161 387.681 384.237 388.961C385.735 385.852 387.266 382.958 388.979 379.815C392.7 372.598 394.808 364.973 398.744 357.722C402.204 351.651 404.529 343.992 406.127 337.332C408.212 328.165 410.297 318.998 412.814 309.762C414.922 302.137 416.736 295.443 417.517 287.808C421.174 292.752 424.649 297.946 427.08 303.526C426.899 303.775 426.933 303.991 426.751 304.24C423.701 312.898 421.15 321.918 419.213 330.62C416.98 340.253 417.154 349.725 414.024 359.279C411.484 366.972 406.083 373.35 402.613 380.749C400.457 385.287 398.234 389.395 395.977 393.288C397.873 394.092 399.519 394.715 401.415 395.519C402.13 395.848 402.448 396.46 402.085 396.96C403.232 397.22 404.163 397.514 405.343 397.99C405.82 396.81 406.546 395.811 407.022 394.631C411.219 386.234 413.622 377.679 418.251 369.214C422.255 362.394 425.022 353.339 426.699 345.783C429.226 335.22 431.538 324.691 434.497 314.06C437.161 304.359 439.383 296.054 440.185 285.764C441.021 275.69 445.195 265.75 445.168 255.813C445.347 247.168 443.811 237.47 442.264 229.099C441.342 223.28 440.557 218.323 441.61 212.412C442.448 206.535 444.614 200.669 444.987 194.645C445.641 184.82 442.107 173.671 440.139 164.041C438.797 156.963 435.877 149.693 431.652 143.955C426.61 137.242 423.44 129.791 419.226 122.726C417.42 119.698 415.125 114.98 411.991 111.942C406.652 101.962 399.746 90.4632 388.291 86.5335C384.783 85.3217 380.866 85.721 376.984 86.3359C370.24 81.4391 363.279 76.5765 356.138 71.9635C373.483 71.2047 389.625 72.6247 402.07 82.8045ZM184.429 393.434C175.644 396.592 166.223 398.526 157.086 400.857C155.337 399.588 153.623 398.534 151.874 397.264C147.344 393.784 143.789 389.487 140.632 384.906C142.357 384.632 144.298 384.325 145.989 383.836C147.067 383.665 146.794 381.941 145.716 382.112C143.559 382.454 141.618 382.761 139.496 383.318C136.872 379.315 134.396 374.847 131.738 370.628C138.537 368.889 145.086 366.968 151.033 364.038C155.281 371.318 159.246 378.202 166.705 383.427C172.417 387.383 178.389 390.193 184.429 393.434ZM139.432 456.897C139.501 457.328 139.603 457.974 139.887 458.371C135.107 454.71 130.542 451.014 125.977 447.319C130.427 447.498 134.695 447.926 139.111 447.89C147.693 447.635 156.275 447.38 164.856 447.126C165.537 447.239 165.832 446.309 165.764 445.877C167.513 447.147 169.261 448.417 171.044 449.902C174.11 452.509 176.563 455.434 179.197 458.11C174.6 458.396 169.787 458.717 165.156 458.788C161.171 458.756 157.187 458.724 153.168 458.477C150.728 458.422 141.999 459.141 140.511 456.726C140.011 456.363 139.364 456.466 139.432 456.897ZM112.102 436.482C116.21 434.505 120.25 432.098 124.609 430.303C127.526 429.178 130.227 428.088 133.144 426.963C139.037 430.669 145.293 433.876 151.583 437.298C146.475 438.549 141.367 439.8 136.259 441.051C132.877 442.028 129.46 442.79 126.362 444.165C125.533 444.517 124.489 444.903 123.445 445.29C119.198 442.206 115.451 439.486 112.102 436.482ZM124.944 446.378C126.601 445.673 127.827 445.037 128.871 444.651C136.612 441.879 144.954 440.115 153.047 438.171C157.157 440.392 161.086 442.863 165.049 445.549C157.114 445.701 148.964 445.887 141.063 446.255C136.216 446.36 131.403 446.68 126.522 446.57C125.807 446.241 125.375 446.309 124.944 446.378ZM185.348 452.276C180.681 447.933 176.66 443.489 171.596 439.431C169.564 437.764 167.35 436.347 165.351 434.897C167.474 434.339 169.562 433.567 171.866 432.76C172.695 432.408 172.059 431.183 171.23 431.535C168.71 432.376 166.406 433.183 163.887 434.024C158.175 430.068 152.101 426.612 146.208 422.905C153.188 420.916 160.419 419.108 167.649 417.3C173.224 420.394 178.583 423.522 183.466 427.83C187.815 431.56 190.791 436.39 196.116 439.303C201.44 442.215 207.276 444.163 213.406 445.18C217.277 445.893 220.864 446.208 224.452 446.524C220.719 450.871 217.906 456.84 215.955 462.672C214.593 462.446 213.231 462.22 212.084 461.959C202.333 460.411 192.331 458.681 185.348 452.276ZM144.244 421.67C141.03 419.528 137.817 417.386 134.819 415.209C133.071 413.94 131.504 412.421 129.937 410.901C135.907 409.514 141.559 407.514 147.246 405.73C152.957 409.686 159.213 412.892 165.253 416.133C158.205 417.692 151.224 419.681 144.244 421.67ZM128.551 409.133C123.214 403.35 119.034 396.501 114.854 389.651C120.03 388.831 125.387 387.762 130.745 386.692C134.641 393.145 139.15 399.28 145.679 404.211C139.777 406.029 134.272 407.564 128.551 409.133ZM106.96 376.099C108.651 375.611 110.558 375.088 112.283 374.814C115.484 374.087 118.934 373.54 122.351 372.778C123.237 374.184 123.873 375.409 124.759 376.815C126.531 379.627 128.087 382.474 129.859 385.286C124.717 386.322 119.36 387.391 114.184 388.211C112.662 385.58 111.105 382.733 109.368 380.137C108.516 378.946 107.63 377.54 106.96 376.099ZM95.1645 343.503C94.9596 342.21 94.9364 340.667 94.9472 339.34C98.8634 338.941 103.029 338.723 106.945 338.323C107.592 338.221 108.239 338.118 108.886 338.016C109.262 340.387 109.853 342.723 110.478 345.275C111.388 348.224 112.297 351.173 113.422 354.088C108.246 354.908 103.285 355.693 98.0752 356.298C96.7455 352.09 95.5974 347.632 95.1645 343.503ZM94.4305 323.515C94.0892 321.36 93.5321 319.239 92.9751 317.118C97.2885 316.435 101.636 315.967 105.983 315.499C107.132 319.957 108.461 324.165 108.418 329.474C108.362 331.913 108.488 334.102 108.829 336.258C107.319 336.497 105.56 336.554 104.016 336.578C101.178 336.807 98.1248 337.069 95.287 337.298C94.82 332.953 95.1815 328.256 94.4305 323.515ZM89.6439 303.064C89.2451 299.151 88.415 295.305 87.3692 291.494C92.3296 290.709 97.1425 290.388 102.137 289.818C103.274 295.603 102.652 301.446 103.574 307.265C103.949 309.636 104.54 311.972 105.313 314.059C100.966 314.527 96.6182 314.994 92.3048 315.677C91.2249 311.651 90.145 307.624 89.6439 303.064ZM80.3778 264.102C79.706 258.465 80.0783 252.441 81.166 246.745C82.2784 246.79 83.6066 246.8 84.7532 247.061C89.7027 247.602 94.6863 248.36 99.6699 249.117C99.0462 250.762 98.3883 252.192 98.0144 254.018C96.9717 258.602 96.1789 263.367 96.4986 268.177C95.6018 268.098 94.5234 268.269 93.6266 268.19C89.4266 268.192 85.4421 268.161 81.1738 267.732C80.5377 266.507 80.3329 265.214 80.3778 264.102ZM58.5147 233.542C64.6216 233.017 72.8744 233.477 77.5399 233.622C77.2684 236.095 76.7129 238.172 75.2607 240.169C74.7161 240.918 74.8868 241.996 75.4205 242.574C74.9101 243.538 74.6153 244.469 74.0707 245.218C70.0863 245.186 65.8862 245.189 61.8335 244.726C60.2556 244.534 58.6435 244.126 57.0314 243.719C57.3821 240.35 57.9484 236.946 58.5147 233.542ZM82.0271 242.411C82.7299 239.87 83.1039 238.043 83.2621 236.251C83.591 235.536 83.7043 234.855 83.7834 233.959C89.8112 234.33 96.0206 234.451 102.048 234.822C102.447 238.735 102.346 242.286 100.384 245.248C99.839 245.997 99.9755 246.859 100.509 247.437C100.543 247.653 100.328 247.687 100.362 247.902C97.6373 247.45 94.9128 246.998 92.1883 246.546C88.5669 246.015 85.1953 245.665 81.6764 245.781C81.4716 244.487 81.7323 243.342 82.0271 242.411ZM145.965 259.458C146.193 262.294 147 264.597 147.841 267.115C147.841 267.115 147.626 267.149 147.41 267.183C142.381 267.537 137.137 267.926 132.04 267.85C131.573 263.505 131.935 258.809 132.83 254.69C137.132 255.334 141.469 256.194 145.771 256.838C145.908 257.7 145.829 258.596 145.965 259.458ZM112.789 299.84C112.424 296.142 111.628 292.513 110.65 289.133C117.189 288.539 123.693 287.73 129.947 286.739C130.015 287.17 130.084 287.601 130.152 288.032C131.119 292.74 130.576 297.686 131.361 302.643C131.873 305.876 132.748 308.609 133.623 311.343C127.55 312.083 121.659 312.575 115.586 313.316C114.438 308.858 113.108 304.65 112.789 299.84ZM110.162 287.443C108.343 281.545 106.309 275.681 105.138 269.681C111.778 269.733 118.635 269.752 125.241 269.589C125.412 270.667 125.367 271.779 125.753 272.822C126.652 277.098 128.379 281.023 129.708 285.23C122.988 286.074 116.7 286.849 110.162 287.443ZM132.313 269.574C137.376 269.435 142.654 269.262 147.683 268.907C147.899 268.873 148.114 268.839 148.296 268.589C148.716 269.848 149.137 271.107 149.342 272.4C149.888 275.848 149.321 279.252 148.937 282.406C144.623 283.089 140.526 283.738 136.212 284.421C134.746 279.351 133.098 274.531 132.313 269.574ZM126.52 258.12C125.704 261.342 125.137 264.745 125.218 268.047C118.362 268.028 111.721 267.975 104.865 267.956C104.762 267.31 104.66 266.663 104.557 266.017C103.988 261.026 104.429 255.433 105.369 250.202C109.921 251.028 114.473 251.853 118.991 252.463C122.147 252.847 125.088 253.265 128.243 253.649C127.37 255.113 126.928 256.509 126.52 258.12ZM123.055 251.599C117.175 250.763 111.476 249.677 105.561 248.625C105.709 248.16 105.822 247.479 105.969 247.014C106.525 244.938 106.933 243.327 106.909 241.784C107.681 239.674 107.986 237.416 108.076 235.192C114.967 235.427 122.107 235.842 128.997 236.076C129.817 241.249 131.17 247 128.481 250.96C128.118 251.46 128.22 252.106 128.504 252.503C126.676 252.13 124.883 251.972 123.055 251.599ZM94.5467 269.811C95.1937 269.709 95.8748 269.822 96.5218 269.72C96.6242 270.366 96.7266 271.013 96.829 271.659C98.1479 277.194 100.545 282.559 101.898 288.31C96.8695 288.664 92.0906 289.2 87.1303 289.986C85.1753 283.226 82.8231 276.75 81.2995 269.921C85.7152 269.885 90.131 269.848 94.5467 269.811ZM114.126 355.744C116.308 361.142 118.671 366.291 121.465 371.372C118.264 372.1 115.029 372.612 111.828 373.34C109.887 373.647 107.98 374.17 106.074 374.693C103.279 369.613 100.598 363.851 98.564 357.988C103.774 357.383 108.95 356.564 114.126 355.744ZM150.397 362.813C144.45 365.743 137.685 367.698 131.102 369.404C130.534 368.61 130.182 367.782 129.614 366.988C127.24 363.167 125.013 358.88 123.218 354.525C130.154 353.647 137.339 352.951 143.922 351.245C145.513 354.307 147.069 357.154 148.875 360.182C149.443 360.976 150.045 361.985 150.397 362.813ZM135.454 350.819C131.141 351.502 126.827 352.186 122.514 352.869C120.366 347.686 118.616 342.219 117.797 337.046C124.267 336.022 130.419 334.385 136.752 332.498C136.821 332.929 136.923 333.575 137.207 333.972C138.923 339.224 140.855 344.441 143.218 349.59C140.63 350 138.042 350.409 135.454 350.819ZM117.524 335.322L117.49 335.107C116.784 329.254 117.906 323.774 116.734 317.773C116.564 316.696 116.427 315.834 116.041 314.79C122.148 314.265 128.005 313.558 134.077 312.817C134.703 315.369 135.112 317.955 135.159 321.041C135.024 324.376 135.536 327.609 136.264 330.808C130.146 332.66 123.744 334.116 117.524 335.322ZM142.068 310.226C141.067 305.303 139.306 301.163 138.952 296.138C138.622 292.656 137.86 289.242 136.667 285.896C140.549 285.281 144.647 284.632 148.744 283.983C148.699 285.095 148.654 286.206 148.643 287.534C148.963 292.343 150.066 297.913 150.999 302.405C151.556 304.526 152.045 306.216 152.567 308.121C149.185 309.099 145.734 309.645 142.068 310.226ZM302.912 259.344C304.706 259.502 306.637 264.719 308.046 268.031C307.865 268.281 307.899 268.496 307.751 268.961C306.675 273.329 305.132 277.55 303.772 281.522C300.433 277.19 296.731 273.358 293.392 269.026C293.142 268.845 293.108 268.629 292.824 268.233C294.253 264.692 296.079 260.868 296.18 257.317C296.428 253.301 294.622 250.274 291.874 248.279C291.84 248.063 291.84 248.063 291.806 247.848C288.33 242.654 281.258 242.669 275.662 242.23C266.728 241.657 259.498 243.465 250.699 239.556C245.476 237.29 239.957 231.758 233.85 232.283C225.371 233.184 217.657 245.894 215.298 253.337C212.282 262.21 214.523 273.565 219.089 281.457C222.701 287.513 223.894 290.859 224.987 297.756C225.703 302.282 226.42 306.808 227.353 311.299C228.865 319.455 237.802 328.423 245.058 332.355C253.493 336.763 263.743 334.477 270.37 327.462C277.938 319.415 279.92 305.404 284.127 295.679C287.53 287.85 288.878 281.008 290.918 272.953C291.213 272.022 291.474 270.877 291.95 269.696C295.539 274.209 299.525 278.438 302.898 282.986C299.485 292.142 295.821 301.118 293.657 311.181C291.085 322.856 285.946 332.286 275.448 338.588C266.755 343.721 259.14 348.683 248.718 345.694C238.796 343.068 230.281 339.556 222.366 332.856C214.202 325.975 211.984 316.164 210.13 305.853C208.822 298.99 208.843 292.138 206.025 285.515C202.219 276.839 198.436 269.706 197.331 259.939C196.762 254.948 196.669 248.777 199.505 244.351C201.831 240.889 207.415 238.458 210.774 235.938C216.482 231.499 221.123 225.904 227.081 221.646C230.44 219.126 233.686 217.286 238.057 218.361C240.6 219.063 244.018 222.498 246.811 223.382C254.076 225.987 261.477 225.256 269.083 225.819C276.223 226.235 282.864 226.287 289.742 223.652C296.223 221.3 314.271 217.999 320.631 226.05C323.675 231.312 319.897 236.771 317.334 242.921C317.152 243.17 317.186 243.386 317.005 243.636C316.755 243.454 316.539 243.488 316.505 243.273L316.289 243.307C316.289 243.307 316.289 243.307 316.255 243.091C315.29 242.582 314.632 244.011 315.597 244.521C315.847 244.703 316.097 244.884 316.347 245.065C313.421 251.715 310.926 258.296 308.93 265.24C307.658 262.79 306.636 260.522 305.795 258.004C305.726 257.573 305.261 257.426 304.83 257.494C304.183 257.596 303.717 257.449 303.07 257.552C302.276 258.119 302.231 259.231 302.912 259.344ZM277.232 252.144C281.615 256.089 285.022 260.852 288.611 265.365C287.988 267.01 287.114 268.474 286.672 269.87C283.384 281.216 280.244 292.097 275.809 303.183C274.086 307.653 271.749 312.442 269.31 316.584C264.103 325.583 253.774 328.765 245.542 321.453C242.726 319.027 239.16 316.057 236.56 313.597C233.142 310.162 231.789 304.411 230.788 299.488C229.367 293.306 229.263 288.462 225.9 282.588C218.892 270.442 214.833 253.19 229.019 243.653C236.815 238.441 248.921 250.663 258.478 249.591C265.232 248.963 277.729 244.112 286.005 246.115C284.642 245.889 283.53 245.845 282.236 246.049C281.157 246.22 280.534 247.866 281.714 248.341C286.074 250.744 290.548 252.465 290.822 258.387C290.845 259.93 290.256 261.791 289.451 263.686C286.078 259.138 282.67 254.376 277.924 250.93C277.243 250.817 276.732 251.781 277.232 252.144ZM319.393 254.525C319.869 253.345 320.345 252.164 320.822 250.984C321.174 251.812 321.492 252.425 322.06 253.218C322.094 253.434 322.31 253.4 322.525 253.366C323.798 255.815 324.673 258.549 325.911 260.783C327.217 263.448 328.773 266.294 330.08 268.96C327.869 275.938 326.089 282.847 324.775 289.904C321.084 284.745 317.143 279.404 313.633 273.995C315.266 267.55 316.864 260.89 319.393 254.525ZM354.269 296.058C353.634 299.031 353.249 302.185 352.615 305.157C347.721 302.176 345.335 295.485 343.04 290.767C341.029 286.446 338.803 282.159 336.792 277.838C337.937 273.901 338.435 270.066 339.183 266.413C341.751 272.855 344.716 279.013 348.578 285.25C350.633 288.46 352.474 291.703 354.564 295.128C354.564 295.128 354.416 295.593 354.269 296.058ZM360.7 251.517C359.746 249.68 358.757 247.627 359.018 246.481C359.994 245.664 360.97 244.846 361.912 243.814C362.411 244.176 362.695 244.573 363.229 245.151C362.276 247.512 361.255 249.441 360.7 251.517ZM379.78 306.378C374.487 299.484 370.818 291.67 366.933 283.89C368.101 281.495 369.235 278.886 369.938 276.344C373.857 284.34 377.742 292.119 381.662 300.115C381.106 302.191 380.551 304.267 379.78 306.378ZM373.328 112.101C370.785 111.399 368.128 111.378 365.506 111.572C362.27 107.887 358.999 103.987 355.762 100.302C359.86 99.6526 364.105 98.5384 368.418 97.8552C371.826 102.618 375.448 107.346 379.469 111.791C383.988 116.598 389.302 120.838 394.004 125.395C394.787 126.155 395.945 125.088 395.161 124.328C390.71 119.952 385.645 115.894 381.194 111.518C376.992 107.323 373.369 102.594 369.928 97.6161C380.53 96.1579 390.939 96.2766 398.083 105.087C397.549 104.509 398.719 106.312 399.82 107.684C402.66 111.653 406.441 114.588 409.099 118.807C410.269 120.61 412.506 123.57 415.027 126.926C415.311 127.323 415.414 127.969 415.448 128.185C417.982 134.411 419.051 139.765 422.594 145.39C423.446 146.581 424.048 147.59 424.65 148.599C424.684 148.815 424.968 149.212 425.002 149.427C427.161 153.283 428.853 156.991 430.285 161.846C432.979 170.477 435.469 182.013 436.04 191.201C436.43 200.64 432.335 209.683 432.475 218.94C432.546 227.766 434.877 236.897 435.595 245.62C436.484 255.421 435.567 262.194 433.335 271.826C431.17 281.89 431.015 292.077 427.954 302.062C425.307 296.516 421.831 291.322 417.925 286.197C417.856 285.766 418.038 285.516 417.97 285.085C418.579 276.373 422.311 267.828 422.455 258.968C422.588 251.436 421.257 243.03 420.097 235.703C419.312 230.746 418.595 226.22 419.569 221.205C420.294 216.009 422.165 211.073 422.424 205.73C423.034 197.017 419.988 187.558 418.225 179.221C417.02 173.005 414.486 166.778 410.795 161.619C406.32 155.7 403.752 149.258 399.924 143.236C398.187 140.64 396.21 136.534 393.791 133.824C389.372 125.466 383.568 115.339 373.328 112.101ZM355.62 113.359C352.385 113.871 348.968 114.633 345.767 115.361C342.178 110.848 338.59 106.335 334.967 101.607C340.064 101.683 345.126 101.544 350.121 100.974C351.415 100.769 352.493 100.598 353.787 100.394C357.024 104.078 360.26 107.763 363.531 111.664C360.546 112.358 357.992 112.983 355.62 113.359ZM332.067 118.194C330.989 118.365 329.66 118.354 328.582 118.525C328.174 120.136 327.732 121.532 327.539 123.109C326.222 121.771 324.905 120.433 323.837 119.276L324.019 119.027C323.803 119.061 323.803 119.061 323.588 119.095C323.588 119.095 323.553 118.879 323.338 118.914C323.304 118.698 323.27 118.483 323.235 118.267C323.178 116.509 321.782 116.067 320.669 116.022C316.683 111.793 312.697 107.564 308.927 103.301L309.143 103.267C316.657 101.856 324.626 101.919 332.379 102.017C336.002 106.745 339.84 111.44 343.679 116.134C339.581 116.783 335.983 117.795 332.067 118.194ZM317.991 118.656C313.36 118.727 308.479 118.616 303.881 118.902C303.768 119.583 303.655 120.264 303.292 120.763C301.725 119.244 300.123 117.509 298.522 115.774C299.372 112.768 300.223 109.761 301.073 106.754C301.186 106.074 301.299 105.393 301.413 104.712L301.628 104.678C302.036 103.067 302.444 101.456 302.818 99.6291C303.352 100.207 303.92 101.001 304.669 101.545C309.223 106.568 313.993 111.557 318.547 116.58C318.218 117.294 317.855 117.794 317.991 118.656ZM290.586 111.729C290.417 114.849 290.214 117.753 289.795 120.692C287.025 121.351 284.187 121.58 281.281 121.377C276.296 116.423 271.742 111.4 267.154 106.161C272.955 107.894 277.758 108.901 284.296 108.307C285.624 108.317 287.134 108.078 288.428 107.873C289.211 108.633 290.029 109.608 290.812 110.368C290.665 110.833 290.518 111.298 290.586 111.729ZM286.102 142.043C285.728 143.87 285.173 145.946 284.583 147.807C271.246 150.141 257.338 143.285 244.657 139.992C239.571 138.588 235.597 137.229 230.342 138.945C228.219 139.502 226.165 140.49 224.292 141.229C222.578 140.175 220.863 139.121 219.365 138.032C214.721 135.233 209.895 132.684 205.581 129.169C204.797 128.41 203.798 127.684 203.014 126.925C208.769 125.571 214.455 123.787 219.608 121.424C221.878 120.402 223.751 119.664 225.658 119.141C235.434 126.429 245.211 133.718 255.168 140.757C256.168 141.482 257.257 139.984 256.258 139.259C246.765 132.367 237.307 125.691 228.212 118.515C229.721 118.276 231.515 118.434 233.808 118.954C236.998 119.554 240.007 120.403 243.231 121.218C250.61 123.142 258.023 125.282 265.471 127.637C271.522 129.551 275.893 130.626 282.249 130.282C284.225 130.19 285.95 129.917 287.857 129.394C288.107 129.575 288.39 129.972 288.856 130.119C287.745 134.272 287.031 138.141 286.102 142.043ZM195.339 152.442C193.932 153.328 192.524 154.214 191.117 155.099C188.119 152.923 185.122 150.747 182.124 148.57C179.342 146.36 176.379 144.399 173.381 142.223C175.015 139.976 176.898 137.91 178.816 136.06C180.915 133.96 183.548 132.438 186.034 131.382C193.131 137.106 200.194 142.615 207.256 148.125C203.511 149.601 199.232 150.5 195.339 152.442ZM138.172 150.229C141.065 147.562 143.709 144.713 146.103 141.683C146.853 142.227 147.636 142.986 148.385 143.53C151.167 145.741 154.165 147.917 157.128 149.878C154.553 153.158 151.977 156.438 149.152 159.537C144.576 157.168 139.819 155.05 134.881 153.181C136.038 152.114 137.196 151.047 138.172 150.229ZM212.618 98.2296C218.418 95.7645 221.301 94.4242 227.181 95.2603C233.915 101.484 240.615 107.493 247.564 113.683C245.021 112.981 242.694 112.245 240.151 111.543C233.918 109.879 229.229 108.191 222.896 110.078C221.42 110.533 219.945 110.988 218.503 111.658C216.255 110.025 214.223 108.359 211.94 106.511C209.658 104.663 207.376 102.816 205.309 100.934C207.829 100.093 210.348 99.2519 212.618 98.2296ZM210.972 66.8978C216.863 66.4066 223.606 67.106 230.236 68.4862C231.02 69.2458 231.554 69.824 232.121 70.6178C235.108 74.1214 238.095 77.625 241.263 80.879C244.466 84.3484 247.668 87.8179 250.836 91.0718C245.932 89.4184 241.027 87.765 236.191 86.5427C229.743 84.9129 224.804 83.0439 218.618 84.4656C217.335 83.3432 216.268 82.1868 214.984 81.0644C211.317 77.4478 208.193 73.0821 204.707 69.2157C204.423 68.8188 204.173 68.6375 203.889 68.2406C206.443 67.6152 208.566 67.0581 210.972 66.8978ZM356.274 72.8256C362.588 77.7907 368.901 82.7558 375.396 87.4712C373.023 87.8469 370.901 88.4041 368.744 88.7456C367.234 88.9847 365.94 89.1897 364.465 89.6443C362.159 86.2537 360.103 83.0445 357.798 79.654C356.344 77.454 354.675 75.2883 352.789 73.1566C354.083 72.9517 355.162 72.7809 356.274 72.8256ZM356.254 79.6775C358.56 83.0681 360.865 86.4587 362.955 89.8834C358.46 90.8163 353.784 91.9988 349.289 92.9316C349.005 92.5348 348.471 91.9565 348.188 91.5596C343.849 86.5026 339.295 81.4798 335.355 76.139C340.496 75.1037 345.854 74.0342 351.28 73.3957C352.915 75.346 354.8 77.4776 356.254 79.6775ZM322.698 78.5854C326.115 77.8233 329.781 77.2426 333.414 76.4464C334.231 77.4215 334.867 78.6463 335.685 79.6215C339.308 84.3499 343.328 88.7945 347.348 93.2391C345.623 93.5123 343.897 93.7856 342.172 94.0589C338.04 94.4923 333.874 94.7103 329.674 94.7128C325.767 89.5874 321.861 84.4621 317.954 79.3368C319.282 79.3474 320.973 78.8586 322.698 78.5854ZM326.836 94.9413C320.661 95.0357 314.452 94.9145 308.311 95.2243C308.221 97.4479 307.915 99.7055 307.61 101.963C307.076 101.385 306.576 101.022 306.258 100.41C305.225 99.4689 304.373 98.2782 303.34 97.3373C303.453 96.6565 303.6 96.1914 303.714 95.5106C303.498 95.5448 303.067 95.6131 302.851 95.6473C303.157 93.3896 303.644 90.8822 303.949 88.6246C304.255 86.3669 304.924 83.6098 305.343 80.6715C308.646 80.5901 311.699 80.3274 314.969 80.0306C319.057 84.9062 322.93 89.816 326.836 94.9413ZM297.839 80.7552C297.545 81.6856 297.25 82.616 297.171 83.5123C296.763 85.1234 296.139 86.7687 295.697 88.1643C293.528 85.6358 291.358 83.1073 289.224 80.7943C291.846 80.5999 294.967 80.7683 297.839 80.7552ZM292.93 97.2185C289.514 97.9806 285.995 98.0961 282.657 97.9619C276.718 91.1702 270.994 84.3443 265.089 77.7681C271.106 79.4662 277.02 80.5178 283.661 80.5706C284.308 80.4682 284.774 80.6154 285.421 80.5129C288.623 83.9824 291.576 87.2705 294.778 90.7399C294.007 92.8504 293.452 94.9267 292.93 97.2185ZM247.935 72.7526C252.34 74.0433 256.745 75.334 260.934 76.6588C266.907 83.666 272.881 90.6733 279.07 97.6464C270.783 96.9705 262.439 94.5364 254.31 92.0681C250.858 88.4173 247.406 84.7664 243.704 80.9343C240.536 77.6803 237.549 74.1767 234.562 70.6731C234.028 70.0948 233.495 69.5166 232.961 68.9383C238.478 70.2737 243.564 71.6775 247.935 72.7526ZM239.363 98.1913C247.639 100.194 255.767 102.663 263.68 105.165C268.518 110.585 273.39 116.22 278.409 121.39C269.475 120.817 260.631 118.02 251.788 115.223C244.588 108.852 237.639 102.662 230.621 96.041C233.595 96.6746 236.57 97.3081 239.363 98.1913ZM212.6 109.279C213.883 110.401 215.348 111.274 216.631 112.396C210.615 114.895 204.918 118.007 199.084 120.257C198.04 120.643 196.996 121.029 195.917 121.2C195.668 121.019 195.668 121.019 195.418 120.837C189.241 116.734 183.064 112.631 177.285 108.244C181.064 106.983 185.094 105.903 189.191 105.254C193.902 104.287 198.794 103.07 203.436 101.672C206.105 104.563 209.568 106.887 212.6 109.279ZM165.992 115.114C166.208 115.08 166.174 114.865 166.39 114.83C169.705 117.619 173.055 120.623 176.371 123.412C177.654 124.534 179.153 125.623 180.47 126.961C175.386 129.754 170.903 133.557 166.955 137.938C164.956 136.487 162.708 134.855 160.709 133.404C158.711 131.953 156.713 130.502 154.748 129.267C158.129 124.092 161.544 119.133 165.992 115.114ZM180.295 113.291C184.541 116.374 188.97 119.207 193.432 122.256C189.618 123.302 185.804 124.348 182.093 126.041C181.06 125.1 180.061 124.374 178.811 123.467C174.996 120.316 171.362 116.915 167.547 113.763C169.896 111.845 172.348 110.573 175.015 109.267C176.763 110.536 178.546 112.021 180.295 113.291ZM149.262 119.752C148.32 120.785 147.628 122 146.686 123.032C144.904 121.547 143.155 120.278 141.372 118.793C138.556 116.367 135.74 113.941 132.743 111.764C137.123 107.315 141.503 102.865 146.416 98.9942C150.016 102.18 153.979 104.866 157.76 107.802C158.509 108.346 159.259 108.89 159.792 109.468C155.855 112.522 152.416 115.939 149.262 119.752ZM127.602 116.997C128.76 115.93 129.917 114.863 130.859 113.83C132.823 115.066 134.753 116.085 136.536 117.57C138.569 119.237 140.601 120.903 142.634 122.57C143.633 123.295 144.632 124.021 145.416 124.78C143.203 127.561 141.025 130.557 138.846 133.553C135.531 130.764 131.999 128.01 128.502 125.471C126.719 123.986 124.971 122.716 122.972 121.265C124.709 119.665 126.263 118.314 127.602 116.997ZM147.374 139.935C149.552 136.939 151.696 133.727 153.841 130.515C157.054 132.658 160.052 134.834 163.083 137.226C163.833 137.77 164.832 138.495 165.616 139.255C165.252 139.754 164.855 140.038 164.492 140.537C162.461 143.068 160.43 145.599 158.433 148.346C154.686 145.625 150.939 142.905 147.374 139.935ZM172.36 144.152C177.89 148.357 183.67 152.744 189.381 156.7C187.213 158.369 185.114 160.469 183.23 162.534C177.474 159.69 171.684 156.631 166.075 153.321C168.219 150.11 170.182 147.148 172.36 144.152ZM187.941 130.859C191.471 129.416 195.319 128.585 199.201 127.971C199.632 127.902 200.279 127.8 200.926 127.697C201.176 127.879 201.46 128.276 201.925 128.423C208.307 133.819 215.596 137.967 222.67 142.149C218.743 143.875 214.884 146.033 210.889 147.328C210.457 147.397 210.276 147.646 209.844 147.715C202.135 142.308 195.038 136.583 187.941 130.859ZM290.8 107.498C291.016 107.463 290.8 107.498 290.8 107.498C291.016 107.463 291.016 107.463 290.8 107.498C290.8 107.498 291.016 107.463 290.8 107.498ZM407.417 298.024C402.601 289.95 398.432 281.773 394.263 273.596C395.227 269.909 395.975 266.255 396.041 262.489C395.984 260.731 395.926 258.972 395.835 256.999C397.709 260.457 400.196 263.598 402.718 266.955C405.489 270.492 408.078 274.28 410.668 278.067C409.751 284.84 409.265 291.545 407.417 298.024ZM180.974 78.4978C187.319 75.2836 194.639 71.2522 202.198 68.7294C204.299 70.8268 206.037 73.4236 207.456 75.408C210.227 78.9458 213.146 82.0184 216.28 85.0568C209.981 87.1592 203.818 90.1236 197.655 93.088C197.121 92.5098 196.588 91.9315 196.235 91.1036C193.18 87.169 189.955 82.1567 184.869 80.753C184.403 80.6058 183.79 80.9238 183.893 81.5703C184.757 85.6311 189.185 88.4645 192.217 90.8564C192.501 91.2533 193.045 90.5042 192.58 90.357C190.263 88.2937 187.016 85.936 185.675 83.0554C190.069 85.6733 192.943 89.8577 195.998 93.7923C193.728 94.8146 191.242 95.8711 188.938 96.6779C182.889 98.9616 176.419 99.9863 170.438 102.701C167.02 99.2658 162.466 94.243 158.255 95.5727C157.823 95.641 157.642 95.8907 157.71 96.3217L158.017 98.2614C158.086 98.6924 158.733 98.59 158.88 98.1248C159.515 95.1522 166.214 101.161 168.781 103.405C168.565 103.44 168.383 103.689 168.168 103.723C165.716 104.995 163.515 106.449 161.347 108.118C157.566 105.182 153.819 102.461 150.038 99.5253C150.004 99.3097 150.219 99.2756 149.969 99.0942C149.22 98.5501 148.686 97.9719 147.937 97.4278C148.731 96.8601 149.31 96.3266 150.104 95.7589C159.024 89.2649 170.953 83.6198 180.974 78.4978ZM101.626 137.239C108.413 132.629 115.381 127.77 121.815 122.332C122.78 122.842 123.495 123.171 124.279 123.93C129.025 127.376 133.59 131.072 137.939 134.801C133.695 140.113 129.202 145.243 123.857 149.183C119.849 147.608 115.841 146.034 111.981 143.994C108.121 141.954 103.977 139.518 99.4585 138.908C99.6742 138.874 99.8557 138.624 100.071 138.59C100.116 137.478 100.911 136.91 101.626 137.239ZM189.291 220.341C189.507 220.307 189.473 220.091 189.688 220.057C187.656 218.391 185.589 216.509 183.556 214.842C183.341 214.876 183.375 215.092 183.159 215.126C179.06 211.578 175.176 207.995 171.293 204.413C171.293 204.413 171.293 204.413 171.509 204.379C165.842 199.311 160.21 194.459 154.544 189.391L154.328 189.426C149.763 185.73 145.38 181.785 140.997 177.84C140.997 177.84 141.213 177.805 141.179 177.59C138.578 175.13 135.796 172.919 133.196 170.459L132.98 170.493C130.414 168.249 127.848 166.004 125.497 163.725C128.074 164.642 130.901 165.741 133.478 166.659C134.409 166.953 134.851 165.557 133.92 165.263C130.378 163.836 126.654 162.658 123.112 161.231C120.296 158.805 117.662 156.129 115.061 153.669C114.845 153.703 114.448 153.987 114.233 154.021C108.203 149.453 101.629 145.634 95.1235 142.246C95.8837 141.462 96.6782 140.895 97.4725 140.327C98.0404 141.121 98.6424 142.13 98.9946 142.958C99.2786 143.355 99.6758 143.071 99.6075 142.64C99.5733 142.424 98.3011 139.975 98.6983 139.691C99.277 139.157 102.853 140.8 103.569 141.129C106.861 142.375 109.79 144.12 112.72 145.865C115.865 147.577 118.942 148.857 122.234 150.103C121.44 150.67 120.611 151.022 120.032 151.556C122.848 153.982 125.63 156.192 128.446 158.618C130.217 157.233 131.771 155.883 133.508 154.282C138.446 156.151 143.237 158.485 148.029 160.819C145.351 163.453 142.423 165.905 139.177 167.744C141.709 169.773 144.06 172.052 146.592 174.081C149.554 171.845 152.448 169.177 155.16 166.759C155.738 166.226 156.101 165.727 156.68 165.193C161.006 167.38 165.15 169.817 169.51 172.219C170.475 172.729 171.564 171.231 170.599 170.721C166.455 168.284 162.129 166.097 158.019 163.876C160.663 161.027 163.057 157.997 165.201 154.785C170.595 158.129 176.351 160.973 182.107 163.817C175.617 171.694 169.831 181.226 160.956 186.608C162.989 188.275 165.056 190.157 166.872 191.857C169.222 189.939 171.752 187.771 174.067 185.636C180.07 180.267 183.825 173.266 188.329 166.808L188.579 166.99C189.544 167.499 190.167 165.854 189.418 165.31C190.689 163.562 192.175 161.78 193.911 160.18C194.093 159.93 194.309 159.896 194.706 159.612C197.635 161.358 200.78 163.069 203.857 164.349C204.822 164.859 205.661 163.179 204.481 162.703C201.62 161.389 198.94 159.825 196.26 158.261C200.448 155.389 205.556 154.138 210.698 153.103C211.776 152.932 212.854 152.761 213.899 152.375C214.398 152.737 214.898 153.1 215.397 153.463C216.147 154.007 217.054 152.759 216.305 152.215L216.055 152.033C220.085 150.953 224.08 149.658 227.791 147.965C228.835 147.579 229.664 147.227 230.493 146.874C235.704 150.468 240.916 154.061 246.899 155.543C248.045 155.803 248.204 154.011 247.057 153.751C241.54 152.415 237.475 149.083 232.797 146.068C234.703 145.545 236.679 145.453 239.437 146.121C241.946 146.607 244.705 147.275 247.248 147.976C253.48 149.64 259.497 151.339 265.764 153.218C270.669 154.871 274.324 155.618 279.603 155.445C280.681 155.274 281.793 155.319 283.053 154.898C282.872 155.148 282.94 155.579 282.758 155.829C281.648 159.981 282.841 163.327 282.377 167.377L282.411 167.593C277.098 167.551 271.967 167.259 266.734 166.32C260.819 165.268 254.145 165 248.377 163.483C240.499 161.196 233.152 155.29 224.549 158.199C217.421 160.654 209.329 166.796 203.724 171.881C198.878 176.184 196.599 182.731 191.685 186.602C185.545 191.109 178.747 192.849 172.686 196.46C174.469 197.945 176.036 199.464 177.853 201.165C180.373 200.324 182.926 199.698 185.265 199.107C190.951 197.323 197.795 194.471 201.925 189.84C204.172 187.275 205.204 184.019 207.45 181.454C209.879 178.639 213.34 176.765 216.052 174.347C218.764 171.929 221.203 167.787 224.483 166.163C232.451 162.029 241.841 168.274 249.436 170.164C262.048 173.027 273.424 177.853 285.775 177.665C286.375 174.476 286.976 171.288 287.576 168.1C287.576 168.1 287.576 168.1 287.36 168.134L287.542 167.885C289.604 157.175 291.882 146.43 293.909 135.505C293.875 135.289 294.057 135.039 294.023 134.824C295.771 136.093 297.52 137.363 299.234 138.417C300.234 139.142 301.323 137.644 300.324 136.919C298.359 135.684 296.361 134.233 294.578 132.748C295.552 127.733 296.992 122.865 298.432 117.998C299.999 119.517 301.6 121.252 303.168 122.771C302.907 123.917 302.612 124.847 302.351 125.993C302.783 125.925 303.43 125.823 303.827 125.539C304.474 125.436 305.121 125.334 305.768 125.231C306.801 126.172 307.619 127.147 308.652 128.088C309.436 128.848 310.741 127.316 309.741 126.59C309.208 126.012 308.674 125.434 308.174 125.071C311.228 124.808 314.066 124.58 317.153 124.533C316.893 125.679 316.416 126.859 316.371 127.97C315.499 133.632 313.447 138.817 311.859 144.15C311.712 144.615 311.599 145.296 311.451 145.761C307.036 145.798 302.836 145.8 298.42 145.837C298.046 147.663 297.922 149.671 297.548 151.498C301.611 150.633 306.027 150.597 310.227 150.594C309.853 152.421 309.445 154.032 309.071 155.859C308.584 158.366 308.562 161.021 308.541 163.675C309.731 158.626 311.386 153.725 312.894 149.288C315.842 139.984 319.222 130.612 322.816 121.205C327.836 126.376 332.855 131.546 338.09 136.681C339.123 137.622 340.678 136.272 339.645 135.331C336.227 131.895 332.559 128.279 329.141 124.843C332.444 124.762 335.747 124.681 339.016 124.384C342.07 124.121 345.486 123.359 348.903 122.597C352.458 126.894 356.228 131.158 359.998 135.421C360.816 136.396 362.155 135.079 361.371 134.32C357.885 130.453 354.364 126.371 351.06 122.255C358.142 120.913 365.259 119.785 371.492 121.449C373.945 124.375 376.398 127.3 379.067 130.191C379.884 131.166 381.439 129.816 380.621 128.84C378.986 126.89 377.351 124.94 375.5 123.024C377.43 124.044 379.428 125.495 381.098 127.66C380.564 127.082 381.7 128.67 382.586 130.076C385.141 133.648 388.207 136.255 390.547 139.861C391.683 141.449 393.42 144.046 395.624 146.79C395.692 147.221 395.976 147.618 396.01 147.833C398.191 153.232 399.158 157.939 402.35 162.736C402.952 163.745 403.554 164.754 404.122 165.548C404.156 165.764 404.19 165.979 404.44 166.16C406.314 169.619 407.689 172.715 409.018 176.923C411.325 184.511 413.577 194.538 413.943 202.434C414.377 210.76 410.725 218.408 410.694 226.587C410.811 234.301 412.72 242.173 413.268 249.819C413.952 258.327 413.149 264.419 411.358 272.656C411.132 274.017 410.871 275.163 410.645 276.525C405.534 269.381 400.457 262.452 395.346 255.309C394.913 251.179 394.265 247.085 393.65 243.205C393.002 239.11 392.421 235.447 393.067 231.147C393.712 226.847 395.289 222.841 395.469 218.394C395.886 211.259 393.511 203.24 391.987 196.411C390.952 191.273 389.02 186.056 385.931 181.906C382.274 176.962 380.093 171.563 376.901 166.766C375.447 164.566 373.823 161.289 371.688 158.976C367.905 151.843 362.805 143.371 354.426 140.722C349.772 139.25 344.301 141 339.556 141.751C333.086 142.776 326.571 144.913 320.067 145.722C319.636 145.79 319.42 145.824 318.989 145.893C318.399 147.754 317.81 149.614 317.402 151.225C320.274 151.212 323.146 151.199 325.734 150.789C337.232 149.41 352.18 143.287 360.641 153.435C360.357 153.038 360.993 154.263 361.845 155.454C363.866 158.447 366.614 160.442 368.42 163.47C369.306 164.876 370.941 166.827 372.645 169.208C372.713 169.639 372.963 169.82 373.031 170.251C374.827 174.606 375.691 178.667 378.314 182.67C378.882 183.464 379.235 184.292 379.802 185.086C379.837 185.301 379.871 185.517 380.12 185.698C381.677 188.544 382.983 191.21 383.961 194.59C385.847 200.919 387.826 209.221 387.987 215.824C388.398 222.607 385.222 229.075 385.418 235.893C385.545 242.28 387.25 248.858 387.593 255.211C387.719 257.4 387.776 259.159 387.834 260.917C385.436 255.553 382.608 250.256 377.964 247.457C377.464 247.094 376.454 247.696 376.772 248.309C377.056 248.705 377.125 249.137 377.409 249.533C377.443 249.749 377.908 249.896 378.09 249.646C381.939 253.013 383.95 257.334 385.779 261.905C386.2 263.164 386.802 264.173 387.438 265.398C387.201 268.087 386.532 270.844 385.931 274.032C384.073 281.838 384.257 289.983 381.683 297.46C381.683 297.46 381.717 297.676 381.502 297.71C377.333 289.533 373.379 281.322 369.426 273.111C369.776 269.742 368.617 266.612 368.287 263.129C367.285 254.009 369.973 250.048 373.876 242.581C375.225 239.937 376.462 237.974 376.631 234.854C376.788 228.865 373.857 222.922 373.367 217.035C373.081 212.44 373.159 207.347 373.305 202.684C373.495 196.91 373.404 194.936 368.816 189.698C363.66 183.666 360.729 177.723 354.371 173.87C347.989 168.473 343.743 165.39 334.104 163.161C326.759 161.452 320.947 161.047 313.967 163.037C313.298 165.794 312.845 168.517 312.392 171.24C315.24 169.684 318.089 168.128 321.324 167.616C327.794 166.591 336.036 168.378 342.087 170.292C344.88 171.175 347.06 172.376 349.092 174.043C353.328 178.453 357.28 182.467 360.971 187.626C362.993 190.62 367.626 194.747 368.172 198.195C368.957 203.152 365.657 211.628 365.648 217.153C365.683 221.565 367.263 225.955 367.514 230.333C367.686 235.608 365.724 238.57 363.534 242.894C363.171 243.393 363.024 243.858 362.877 244.324C361.31 242.804 359.958 241.251 357.756 242.704C354.76 244.725 357.055 249.443 358.112 251.927C358.498 252.97 358.85 253.798 359.237 254.842C358.852 257.996 359.148 261.263 360.478 265.471C361.353 268.204 361.331 270.859 361.094 273.547C358.902 269.476 356.528 265.654 354.551 261.549C351.938 256.219 350.835 250.649 349.266 244.933C349.8 245.511 350.334 246.089 350.686 246.917C350.97 247.314 351.333 246.815 351.299 246.599C350.594 244.943 349.811 244.184 348.528 243.061C348.028 242.699 347.449 243.232 347.518 243.663C348.439 249.482 349.826 255.448 352.224 260.813C354.621 266.177 357.847 271.19 360.425 276.304C359.088 281.818 356.172 287.14 354.404 292.723C354.12 292.326 353.836 291.929 353.518 291.317C349.656 285.08 345.363 278.911 342.295 272.106C340.955 269.226 340.045 266.277 339.136 263.328C339.726 261.467 340.315 259.606 341.121 257.711C345.873 247.238 351.362 234.438 351.96 222.855C352.467 213.496 348.161 204.457 343.992 196.28C343.038 194.443 340.7 195.035 340.292 196.646C330.947 189.289 315.576 185.758 306.507 188.52C300.173 190.407 295.123 193.416 288.085 193.647C279.719 193.868 274.223 189.878 266.594 187.772C261.724 186.334 258.376 187.527 253.597 188.063C245.98 188.828 240.871 185.881 233.594 184.604C225.636 183.213 219.838 189.875 214.948 195.289C211.396 199.387 209.457 203.891 204.372 206.685C199.072 209.513 192.647 209.426 187.313 212.038C189.13 213.739 190.981 215.655 192.798 217.355C193.808 216.753 194.636 216.401 195.896 215.981C199.641 214.504 203.376 214.354 207.053 212.446C214.192 208.665 217.515 201.731 222.837 196.249C227.796 191.266 229.76 192.501 235.88 194.846C239.887 196.421 242.817 198.166 247.267 198.345C253.941 198.613 259.457 195.751 266.189 197.778C271.06 199.216 274.988 201.686 280.153 202.194C288.724 203.267 296.249 200.528 303.751 196.247C313.704 190.694 337.737 193.074 343.304 205.889C343.622 206.502 343.69 206.933 344.008 207.545C344.042 207.761 344.076 207.976 344.11 208.192C344.145 208.407 344.145 208.407 344.145 208.407C345.474 212.615 346.622 217.073 346.306 220.658C345.583 230.051 341.478 240.422 337.281 248.819C336.623 250.249 335.965 251.679 335.091 253.143C335.057 252.927 334.807 252.746 334.773 252.53C334.103 251.09 333.251 249.899 332.581 248.459C330.672 244.785 335.122 244.964 337.223 247.061C337.507 247.458 338.086 246.924 337.802 246.528C336.382 244.543 332.441 239.202 330.002 243.344C329.129 244.808 329.867 246.68 330.537 248.12C331.628 250.819 332.866 253.053 334.139 255.503C332.71 259.043 331.281 262.583 330.102 266.305C327.875 262.018 325.683 257.947 323.672 253.626C323.672 253.626 323.672 253.626 323.638 253.41C323.819 253.161 323.785 252.945 323.535 252.764C322.865 251.324 322.229 250.099 321.343 248.693C326.821 237.22 333.049 226.292 318.176 218.927C316.961 218.236 315.985 219.053 315.509 220.233C308.685 216.233 298.389 215.433 291.772 216.923C283.213 218.721 276.573 218.668 267.786 217.629C263.949 217.132 259.93 216.885 256.059 216.173C250.326 214.871 246.046 211.573 240.71 209.988C228.857 206.342 217.477 219.632 210.021 226.999C204.665 232.266 196.096 235.391 192.092 242.211C188.484 248.747 189.679 256.29 189.228 263.211C188.945 267.011 187.482 270.336 188.562 274.362C189.324 277.777 192.095 281.314 193.901 284.342C198.57 292.882 198.357 301.311 200.903 310.407C202.926 317.598 204.973 326.332 209.663 332.217C215.171 339.077 224.312 345.141 232.214 348.971C245.123 355.1 260.437 356.872 273.341 350.41C281.127 346.526 286.427 343.698 291.691 336.457C296.774 329.466 297.828 323.555 299.368 315.137C300.569 308.761 301.623 302.85 304.186 296.7C305.944 292.445 308.451 288.734 309.959 284.297C310.878 281.722 311.762 278.93 312.431 276.173C313.283 277.364 314.169 278.77 315.02 279.961C317.894 284.145 320.949 288.08 323.788 292.049C323.222 295.452 322.474 299.106 321.908 302.509C320.425 312.686 316.58 321.911 313.45 331.465C310.502 340.768 309.098 350.049 299.474 354.887C290.86 359.124 281.496 362.816 272.143 365.181C263.619 367.194 253.765 364.999 244.968 365.287C233.764 365.736 226.999 367.692 219.14 358.553C216.403 355.23 212.656 352.51 209.919 349.188C206.365 344.89 205.114 339.786 201.197 335.988C197.563 332.587 192.443 330.968 189.206 327.283C185.754 323.632 184.503 318.528 182.89 313.923C179.56 304.067 177.309 294.04 176.998 283.705C176.894 278.862 176.472 273.405 176.584 268.527C176.809 262.968 178.43 257.851 178.655 252.292C178.722 248.526 178.21 245.293 177.414 241.664C186.132 242.271 193.397 240.679 195.676 234.132C197.831 229.593 193.459 224.32 189.291 220.341ZM136.851 232.623C138.895 232.962 142.119 233.777 146.058 234.921C145.458 238.109 145.505 241.194 145.982 244.212C146.778 247.841 146.246 251.46 145.964 255.261C141.627 254.401 137.325 253.757 133.022 253.113C132.988 252.898 133.17 252.648 133.135 252.432C133.509 250.606 133.986 249.426 133.997 248.098C135.21 244.592 134.777 240.463 134.594 236.516C136.388 236.673 138.147 236.616 139.941 236.773C140.837 236.852 141.064 235.491 140.167 235.412C138.374 235.254 136.364 235.131 134.605 235.188C134.684 234.292 134.547 233.43 134.627 232.534C135.489 232.397 136.17 232.51 136.851 232.623ZM128.428 231.085C128.383 232.197 128.554 233.275 128.758 234.568C121.834 234.118 114.943 233.884 108.053 233.65C107.961 231.676 107.836 229.486 107.71 227.297C114.556 228.643 121.617 229.955 128.428 231.085ZM100.649 225.985C101.024 228.356 101.65 230.908 101.809 233.313C95.8158 233.158 90.0036 232.753 84.0099 232.597C84.3947 229.443 84.314 226.142 84.2333 222.841C89.7166 223.961 95.1656 224.865 100.649 225.985ZM61.3245 219.179C66.3082 219.936 71.2918 220.693 76.3095 221.666C76.8898 225.33 77.6858 228.959 77.5849 232.51C76.9038 232.397 76.4725 232.466 75.7913 232.352C73.782 232.229 65.4952 231.553 58.7412 232.181C59.081 230.139 59.4208 228.097 60.0104 226.236C60.316 223.978 60.8032 221.471 61.3245 219.179ZM56.5908 249.312C57.3402 249.856 57.874 250.434 58.4077 251.013C58.4418 251.228 59.0888 251.126 58.8049 250.729C58.3844 249.47 57.635 248.926 56.6699 248.416C56.7149 247.304 56.7599 246.192 57.0206 245.046C62.6853 245.916 68.2477 246.14 73.7759 246.148C73.2996 247.328 72.8574 248.724 72.5967 249.87C71.2251 255.168 70.3873 261.045 70.8435 266.717C66.3936 266.538 61.9096 266.144 57.528 266.396C57.3573 265.318 57.1525 264.025 56.9818 262.947C56.5148 258.603 56.445 253.974 56.5908 249.312ZM57.9035 268.766C61.6381 268.617 65.1912 268.717 68.994 268.998C69.6752 269.111 70.3222 269.009 71.0033 269.122C71.0716 269.553 71.174 270.199 71.2422 270.63C72.8 277.674 76.049 284.229 77.3912 291.307C74.3718 291.786 71.3183 292.048 67.981 291.914C66.403 291.722 65.0749 291.712 63.7467 291.701C62.3022 283.976 59.5637 276.457 57.9035 268.766ZM64.4512 293.357C66.8917 293.412 69.1508 293.717 71.5914 293.772C73.7822 293.646 75.7574 293.555 77.8799 292.997C78.8698 299.247 78.3159 305.521 79.5215 311.737C79.8287 313.677 80.3516 315.582 80.8745 317.488C76.1298 318.239 70.704 318.878 65.6304 320.344C66.0928 312.097 66.3394 303.883 65.0423 295.693C64.6901 294.866 64.5877 294.219 64.4512 293.357ZM65.3589 322.817C70.6823 321.532 75.9716 320.032 81.3291 318.962C82.9319 324.894 84.6821 330.361 84.6619 337.213C84.7643 337.86 84.617 338.325 84.6852 338.756C83.8226 338.893 82.7442 339.063 81.8815 339.2C77.9995 339.815 74.5147 340.146 70.6777 339.649C68.4186 339.344 67.0905 339.333 64.968 339.891C64.7616 334.4 64.9524 328.626 65.3589 322.817ZM70.7212 365.049C66.6204 357.303 65.1418 349.363 64.7414 341.252C68.1921 340.705 71.4504 341.736 75.0035 341.836C77.8754 341.823 80.8606 341.129 83.88 340.651C84.0956 340.617 84.3113 340.583 84.5269 340.548C84.6651 345.608 85.6317 350.315 87.0979 355.385C87.4843 356.429 87.6208 357.291 88.0071 358.334C83.9778 359.414 80.3006 361.322 76.2712 362.402C76.2371 362.187 76.3844 361.722 76.2479 360.859C76.1796 360.428 75.7483 360.497 75.5668 360.746C75.2378 361.461 74.6932 362.21 74.3643 362.925C74.0012 363.425 74.535 364.003 75.0004 364.15C77.8382 363.921 80.074 362.684 82.5596 361.627C84.3982 360.673 86.3051 360.15 88.4618 359.809C90.4959 365.672 92.7457 371.502 95.3927 377.048C93.4516 377.355 91.4765 377.447 89.6829 377.289C87.2423 377.234 84.9832 376.929 82.3611 377.123C81.2828 377.294 79.1261 377.636 77.0036 378.193C75.1743 373.622 72.9477 369.335 70.7212 365.049ZM101.687 423.771C96.7007 414.619 90.2276 407.249 86.0352 397.53C83.2859 391.337 80.5706 385.36 77.8212 379.168C78.2526 379.1 78.8996 378.997 79.3309 378.929C83.4286 378.28 87.2656 378.777 91.4657 378.774C93.2251 378.717 94.7689 378.693 96.4943 378.42C98.187 382.128 100.277 385.553 102.401 389.193C99.7448 389.172 97.0885 389.151 94.4323 389.13C94.3981 388.914 94.364 388.699 94.1483 388.733C92.6045 388.757 91.7077 388.678 90.1639 388.701C89.0515 388.657 89.3245 390.381 90.2213 390.46C94.7395 391.07 98.9737 391.283 103.355 391.031C103.389 391.246 103.639 391.427 103.673 391.643C108.137 398.889 111.954 406.238 116.928 412.52C113.546 413.498 110.379 414.441 106.997 415.418C106.566 415.487 106.668 416.133 107.133 416.281C110.834 415.915 114.466 415.119 118.28 414.073C121.267 417.577 124.685 421.012 128.682 423.914C129.431 424.458 130.43 425.184 131.395 425.694C124.233 427.932 116.742 430.886 111 435.11C107.185 431.958 104.164 428.239 101.687 423.771ZM204.947 469.938C207.672 470.391 210.146 470.661 212.655 471.148C212.36 472.078 212.066 473.009 211.771 473.939C210.626 477.876 209.015 481.666 207.655 485.637C186.471 481.702 166.24 475.406 148.596 464.503C146.132 462.905 143.418 461.126 140.92 459.312C142.748 459.685 144.542 459.843 146.551 459.967C146.369 460.217 146.404 460.432 146.653 460.613C151.718 464.672 158.926 465.518 165.056 466.536C174.343 467.937 183.663 469.554 192.801 471.42C193.732 471.715 193.925 470.138 192.994 469.843C184.786 468.271 176.397 466.949 168.223 465.592C161.196 464.496 154.203 463.615 147.913 460.193C158.675 461.14 169.697 460.94 180.583 459.879C181.866 461.001 183.399 462.305 185.079 463.143C191.369 466.566 198.102 468.592 204.947 469.938ZM249.011 463.401C247.989 461.133 246.83 458.003 245.637 454.657C243.308 449.723 241.013 445.006 239.297 439.754C238.003 439.959 236.709 440.164 235.449 440.585C229.853 440.145 224.369 439.025 218.705 438.155C210.997 436.946 202.108 435.261 195.942 429.831C191.808 426.067 188.538 422.166 183.973 418.471C182.19 416.986 180.226 415.75 178.227 414.299C178.659 414.231 179.09 414.163 179.703 413.845C180.747 413.458 180.508 411.95 179.43 412.121C178.386 412.507 177.523 412.643 176.479 413.03C170.802 409.29 164.727 405.833 159.05 402.093C168.187 399.762 177.393 397.862 186.359 394.454C190.254 396.709 194.182 399.18 197.748 402.15C201.347 405.335 203.937 409.123 208.081 411.559C212.441 413.962 217.345 415.615 222.363 416.588C233.977 418.725 244.034 418.016 255.601 417.068C261.3 418.153 267.248 419.42 273.026 419.61C275.898 419.597 278.838 420.015 281.745 420.217C285.889 422.654 289.999 424.875 294.29 426.846C299.547 429.328 305.462 430.379 310.718 432.861C311.683 433.371 312.307 431.725 311.342 431.215C307.266 429.21 302.714 428.384 298.456 426.628C293.983 424.907 289.623 422.504 285.263 420.102C287.023 420.044 288.567 420.021 290.292 419.747C293.096 419.303 295.581 418.247 298.283 417.156C302.857 415.327 306.512 416.074 311.075 415.572C315.854 415.036 318.793 411.257 322.867 409.065C326.546 411.354 329.68 414.393 332.78 417.215C335.346 419.46 337.981 422.136 341.047 424.743C340.4 424.846 340.003 425.13 339.356 425.232C333.204 426.869 328.948 429.311 323.682 432.354C318.416 435.397 314.192 433.857 308.801 434.711C304.919 435.326 301.888 437.131 298.109 438.393C290.584 441.131 279.97 439.719 271.853 440.121C271.422 440.189 270.957 440.042 270.741 440.076C266.313 437.243 262.429 433.66 260.1 428.727C260.032 428.296 259.419 428.614 259.453 428.829C260.636 433.502 263.872 437.187 267.835 439.874C260.048 439.561 252.339 438.351 244.655 438.685C245.677 440.953 246.915 443.187 247.938 445.455C249.697 445.397 251.638 445.09 253.398 445.032C260.459 446.344 267.338 447.906 274.229 448.14C277.566 448.274 281.153 448.59 284.491 448.724C289.782 451.421 294.925 454.583 300.511 456.349C304.019 457.561 307.856 458.058 311.511 458.804C308.345 459.748 305.712 461.269 302.579 462.428C294.01 465.553 281.818 463.949 272.373 464.34C266.879 464.548 261.498 464.075 256.118 463.601C257.424 466.266 258.765 469.147 260.105 472.028C265.123 473 270.106 473.757 274.988 473.868C282.741 473.966 291.164 475.504 298.962 474.489C302.844 473.875 306.34 472.216 310.12 470.955C316.385 468.637 321.618 469.576 327.907 468.8C335.274 467.855 339.596 461.647 346.224 458.83C354.941 455.24 363.715 453.408 372.011 448.559C376.267 446.118 380.455 443.245 384.643 440.373C384.256 439.329 383.904 438.501 383.733 437.424C382.892 434.906 382.017 432.173 381.324 429.189C377.67 432.64 372.767 435.184 368.364 438.091C362.587 442.099 356.458 445.279 349.694 447.234C342.679 449.008 337.844 451.983 331.75 455.378C326.087 458.705 321.466 457.449 316.04 458.087C312.85 457.488 309.66 456.888 306.47 456.289C299.84 454.909 294.334 452.246 288.328 449.221C290.553 449.31 292.744 449.184 294.9 448.843C298.351 448.296 301.449 446.922 304.582 445.763C309.985 443.581 314.537 444.407 320.178 443.734C326.682 442.925 330.245 437.5 336.045 435.035C340.403 433.24 344.614 431.911 349.006 430.331C349.971 430.841 350.902 431.136 351.867 431.646C353.729 432.234 355.828 430.134 354.443 428.366C344.521 425.739 324.91 409.404 314.327 399.813C313.567 400.596 313.091 401.776 313.942 402.967C314.51 403.761 315.044 404.339 315.793 404.883C315.181 405.201 314.568 405.519 313.773 406.087C309.302 408.562 306.009 407.316 301.48 408.034C298.245 408.546 295.612 410.068 292.695 411.192C286.646 413.476 278.075 412.403 271.469 412.566C271.219 412.385 271.003 412.419 270.753 412.237C269.788 411.728 256.527 404.77 259.954 402.681C260.136 402.431 260.068 402 259.852 402.034C259.205 402.137 258.592 402.454 257.945 402.557C257.514 402.625 257.366 403.09 257.4 403.306C259.127 407.23 262.874 409.951 267.019 412.387C258.119 412.029 249.412 410.095 240.74 412.573C236.04 412.212 231.704 411.353 226.936 410.561C220.556 409.363 213.063 408.119 208.146 403.596C204.762 400.376 201.844 397.303 198.278 394.333C189.932 387.702 180.168 383.283 171.857 376.867C163.545 370.451 158.671 360.619 153.503 351.716C152.901 350.707 152.299 349.698 151.697 348.689C153.139 348.018 154.796 347.314 156.237 346.644C157.066 346.292 156.395 344.851 155.567 345.204C153.91 345.908 152.468 346.578 150.811 347.282C147.949 341.771 145.233 335.794 144.062 329.793C145.753 329.305 147.194 328.635 148.851 327.93C149.896 327.544 149.225 326.104 148.181 326.49C146.74 327.16 145.264 327.615 143.789 328.069C143.618 326.992 143.447 325.914 143.311 325.052C142.81 320.492 143.637 315.942 142.92 311.417C146.586 310.836 150.037 310.289 153.635 309.278C154.09 310.752 154.328 312.261 154.386 314.019C154.592 319.509 157.886 324.953 157.809 330.046C157.709 337.795 157.075 340.767 163.343 346.844C172.212 355.381 182.238 362.851 190.347 372.171C196.854 379.757 200.148 385.2 210.286 387.792C222.036 390.791 231.368 395.278 243.571 395.555C246.693 395.723 249.565 395.71 252.687 395.878C258.069 400.549 264.654 403.041 271.636 405.249C272.567 405.543 273.225 404.114 272.294 403.819C266.243 401.906 260.589 399.708 255.593 396.081C263.596 396.36 271.633 396.854 279.533 396.487C292.928 395.912 309.488 390.196 322.085 381.794C329.419 384.83 336.822 388.297 344.303 390.868C343.078 391.504 342.102 392.321 340.91 393.172C336.722 396.045 332.467 398.486 327.359 399.737C326.099 400.158 325.055 400.544 323.795 400.964C331.391 407.052 340.271 414.262 347.3 419.555C344.483 417.129 341.52 415.168 338.704 412.742C335.888 410.316 333.321 408.072 330.324 405.895C334.716 404.316 339.143 402.952 343.399 400.511C346.645 398.671 349.822 396.4 353 394.13C356.542 395.557 360.084 396.984 363.592 398.196C363.718 400.385 364.99 402.835 367.136 403.821C367.851 404.149 368.851 404.875 369.668 405.85C366.185 410.378 360.669 413.24 355.687 416.68C353.486 418.134 351.284 419.587 349.048 420.825C352.795 423.545 355.974 425.472 357.87 426.276C358.268 425.992 358.699 425.924 358.88 425.674C363.931 422.665 369.344 419.157 374.042 415.32C374.439 415.036 374.802 414.536 375.415 414.218C377.256 417.462 378.812 420.308 379.766 422.146C384.219 430.719 387.741 438.998 390.321 448.31C390.878 450.431 392.537 453.925 392.663 456.114C393.106 458.916 391.938 461.31 392.166 464.146C392.2 464.361 392.234 464.577 392.269 464.792C381.692 471.991 369.309 476.161 355.324 478.597C331.669 482.786 307.811 489.878 283.507 489.972C277.763 489.998 272.02 490.024 266.026 489.869C266.083 491.627 266.107 493.17 265.948 494.962C265.756 496.539 263.599 496.881 262.929 495.44C261.975 493.603 261.236 491.732 260.498 489.861C259.817 489.747 259.17 489.85 258.488 489.737C257.146 482.659 255.509 476.511 252.942 470.069C252.942 470.069 252.942 470.069 253.157 470.035C252.316 467.517 251.26 465.033 250.203 462.55C249.443 463.333 249.227 463.367 249.011 463.401Z" fill="#DCDAD1"/>
<path d="M298.673 175.611C301.422 174.725 304.24 174.279 306.989 173.393C307.188 170.437 307.82 167.412 308.487 164.606C304.003 165.767 299.268 166.742 294.715 167.463C293.901 170.741 293.087 174.02 292.273 177.299C294.224 176.99 296.357 176.427 298.673 175.611Z" fill="#DCDAD1"/>
<path d="M232.775 271.887C232.838 276.481 235.097 280.947 236.025 285.404C236.919 289.647 236.014 293.737 236.441 297.835C237.051 301.685 241.273 311.54 245.688 312.813C250.536 314.019 256.031 308.106 258.869 305.026C263.782 299.643 268.263 294.329 269.991 287.04C270.964 283.378 271.618 279.109 271.258 275.439C270.73 270.699 268.532 270.828 266.09 266.611C267.24 266.867 268.207 267.372 268.592 268.407C269.08 270.083 271.676 269.672 271.188 267.995C270.261 263.538 266.732 263.659 262.736 263.634C256.692 263.276 253.588 260.479 248.354 258.238C245.487 256.938 243.405 256.391 240.512 257.726C235.955 259.764 232.645 266.865 232.775 271.887ZM256.118 266.655C257.734 267.057 261.845 266.406 264.975 266.568C265.009 266.782 264.792 266.816 264.826 267.03C265.173 272.018 267.729 275.559 267.461 280.863C266.916 288.623 263.483 293.552 258.103 298.789C255.994 300.877 253.521 303.461 250.56 304.368C247.815 305.242 249.932 306.003 246.747 304.095C246.246 303.736 243.601 298.236 243.533 297.808C241.774 293.702 241.928 289.073 240.967 284.402C239.619 278.696 236.893 274.085 238.859 268.293C242.378 258.308 249.871 265.014 256.118 266.655Z" fill="#DCDAD1"/>
</g>
<defs>
<clipPath id="clip0_158_1990">
<rect width="481" height="452" fill="white" transform="translate(446.435) rotate(81)"/>
</clipPath>
</defs>
</svg>
