<svg width="40" height="40" viewBox="0 0 40 40" fill="none" xmlns="http://www.w3.org/2000/svg">
<path d="M6.66659 36.6666H19.9999V19.9999H6.66659V36.6666Z" fill="#FDFDFD"/>
<path d="M33.3333 36.6666V19.9999H19.9999V36.6666H33.3333Z" fill="#FDFDFD"/>
<path d="M12.4999 11.6666L3.33325 11.6666V19.9999H6.66659H19.9999V11.6666L12.4999 11.6666Z" fill="#FDFDFD"/>
<path d="M27.4999 11.6666L19.9999 11.6666V19.9999H33.3333H36.6666V11.6666L27.4999 11.6666Z" fill="#FDFDFD"/>
<path d="M33.3333 19.9999V36.6666M33.3333 19.9999H19.9999M33.3333 19.9999H36.6666M33.3333 36.6666H6.66659M33.3333 36.6666H19.9999M6.66659 36.6666V19.9999M6.66659 36.6666H19.9999M6.66659 19.9999H3.33325M6.66659 19.9999H19.9999M3.33325 11.6666H36.6666M3.33325 11.6666V19.9999M3.33325 11.6666L12.4999 11.6666M36.6666 11.6666V19.9999M36.6666 11.6666L27.4999 11.6666M36.6666 19.9999H19.9999M3.33325 19.9999H19.9999M19.9999 36.6666V19.9999M19.9999 11.6666L12.4999 11.6666M19.9999 11.6666C19.9999 11.6666 18.3333 3.33325 12.4999 3.33325C11.3949 3.33325 10.335 3.77224 9.55364 4.55364C8.77224 5.33504 8.33325 6.39485 8.33325 7.49992C8.33325 8.60499 8.77224 9.66479 9.55364 10.4462C10.335 11.2276 11.3949 11.6666 12.4999 11.6666M19.9999 11.6666L27.4999 11.6666M19.9999 11.6666C19.9999 11.6666 21.6666 3.33325 27.4999 3.33325C28.605 3.33325 29.6648 3.77224 30.4462 4.55364C31.2276 5.33504 31.6666 6.39485 31.6666 7.49992C31.6666 8.60499 31.2276 9.66479 30.4462 10.4462C29.6648 11.2276 28.605 11.6666 27.4999 11.6666M19.9999 11.6666V19.9999" stroke="#B2D452" stroke-width="3.33333" stroke-linecap="round" stroke-linejoin="round"/>
</svg>
