<svg width="121" height="100" viewBox="0 0 121 100" fill="none" xmlns="http://www.w3.org/2000/svg">
<path fill-rule="evenodd" clip-rule="evenodd" d="M2 98C2 85.625 18.5 85.625 26.75 77.375C30.875 73.25 18.5 73.25 18.5 52.625C18.5 38.8764 23.9986 32 35 32C46.0014 32 51.5 38.8764 51.5 52.625C51.5 73.25 39.125 73.25 43.25 77.375C51.5 85.625 68 85.625 68 98" fill="#EDE8E2"/>
<path d="M2 98C2 85.625 18.5 85.625 26.75 77.375C30.875 73.25 18.5 73.25 18.5 52.625C18.5 38.8764 23.9986 32 35 32C46.0014 32 51.5 38.8764 51.5 52.625C51.5 73.25 39.125 73.25 43.25 77.375C51.5 85.625 68 85.625 68 98" stroke="#8B9D83" stroke-width="4" stroke-linecap="round"/>
<mask id="path-3-inside-1_158_2708" fill="white">
<path fill-rule="evenodd" clip-rule="evenodd" d="M89.5 63C106.897 63 121 48.897 121 31.5C121 14.103 106.897 0 89.5 0C72.103 0 58 14.103 58 31.5C58 38.3172 60.1656 44.6286 63.8464 49.7838L60.9245 64.8886L75.6543 59.8018C79.8332 61.85 84.5323 63 89.5 63Z"/>
</mask>
<path fill-rule="evenodd" clip-rule="evenodd" d="M89.5 63C106.897 63 121 48.897 121 31.5C121 14.103 106.897 0 89.5 0C72.103 0 58 14.103 58 31.5C58 38.3172 60.1656 44.6286 63.8464 49.7838L60.9245 64.8886L75.6543 59.8018C79.8332 61.85 84.5323 63 89.5 63Z" fill="#EDE8E2"/>
<path d="M63.8464 49.7838L67.7736 50.5435L68.0998 48.8572L67.1017 47.4594L63.8464 49.7838ZM60.9245 64.8886L56.9973 64.1289L55.6814 70.931L62.2301 68.6695L60.9245 64.8886ZM75.6543 59.8018L77.4147 56.2101L75.921 55.4779L74.3486 56.0209L75.6543 59.8018ZM117 31.5C117 46.6878 104.688 59 89.5 59V67C109.106 67 125 51.1061 125 31.5H117ZM89.5 4C104.688 4 117 16.3122 117 31.5H125C125 11.8939 109.106 -4 89.5 -4V4ZM62 31.5C62 16.3122 74.3122 4 89.5 4V-4C69.8939 -4 54 11.8939 54 31.5H62ZM67.1017 47.4594C63.8892 42.9601 62 37.4566 62 31.5H54C54 39.1778 56.4419 46.2971 60.591 52.1081L67.1017 47.4594ZM59.9192 49.0241L56.9973 64.1289L64.8516 65.6483L67.7736 50.5435L59.9192 49.0241ZM62.2301 68.6695L76.96 63.5827L74.3486 56.0209L59.6188 61.1077L62.2301 68.6695ZM89.5 59C85.1559 59 81.0577 57.9956 77.4147 56.2101L73.8938 63.3936C78.6086 65.7045 83.9087 67 89.5 67V59Z" fill="#8B9D83" mask="url(#path-3-inside-1_158_2708)"/>
<path fill-rule="evenodd" clip-rule="evenodd" d="M87.7626 34.7481L91.7201 30.8168C92.813 29.731 93.084 28.0723 92.3927 26.699L92.1685 26.2535C91.4773 24.8801 91.7482 23.2214 92.8412 22.1356L97.7481 17.2612C98.0987 16.9129 98.6671 16.9129 99.0177 17.2612C99.0859 17.329 99.1427 17.4073 99.1859 17.493L101.168 21.4312C102.685 24.4441 102.09 28.0828 99.6924 30.4646L88.9213 41.1645C86.3114 43.7571 82.4509 44.6625 78.9494 43.503L74.6141 42.0674C74.1437 41.9117 73.8895 41.4066 74.0463 40.9394C74.0904 40.808 74.1646 40.6887 74.2632 40.5908L79.0237 35.8618C80.1166 34.776 81.7864 34.5068 83.1689 35.1935L83.6174 35.4163C84.9999 36.103 86.6697 35.8338 87.7626 34.7481Z" fill="#306838"/>
</svg>
