<svg width="30" height="30" viewBox="0 0 30 30" fill="none" xmlns="http://www.w3.org/2000/svg">
<path d="M21.25 2.5H8.75C5.29822 2.5 2.5 5.29822 2.5 8.75V21.25C2.5 24.7018 5.29822 27.5 8.75 27.5H21.25C24.7018 27.5 27.5 24.7018 27.5 21.25V8.75C27.5 5.29822 24.7018 2.5 21.25 2.5Z" stroke="white" stroke-width="2.5" stroke-linecap="round" stroke-linejoin="round"/>
<path d="M20.0001 14.2126C20.1544 15.2529 19.9767 16.3154 19.4923 17.2489C19.0079 18.1824 18.2416 18.9394 17.3022 19.4122C16.3628 19.8851 15.2982 20.0496 14.2599 19.8825C13.2215 19.7155 12.2623 19.2252 11.5187 18.4816C10.775 17.7379 10.2848 16.7787 10.1177 15.7404C9.95063 14.7021 10.1152 13.6375 10.588 12.6981C11.0609 11.7587 11.8179 10.9923 12.7514 10.5079C13.6849 10.0236 14.7473 9.84587 15.7876 10.0001C16.8488 10.1575 17.8312 10.652 18.5897 11.4105C19.3483 12.1691 19.8428 13.1515 20.0001 14.2126Z" stroke="white" stroke-width="2.5" stroke-linecap="round" stroke-linejoin="round"/>
<path d="M21.875 8.125H21.8875" stroke="white" stroke-width="2.5" stroke-linecap="round" stroke-linejoin="round"/>
</svg>
