<svg width="38" height="38" viewBox="0 0 38 38" fill="none" xmlns="http://www.w3.org/2000/svg">
<path fill-rule="evenodd" clip-rule="evenodd" d="M7 10C5.89543 10 5 10.8954 5 12V29C5 30.1046 5.89543 31 7 31H32C33.1046 31 34 30.1046 34 29V12C34 10.8954 33.1046 10 32 10H7ZM30.8576 13.6313C30.5461 13.0478 29.8246 12.8295 29.2461 13.1437L19.5 18.4372L9.75387 13.1437C9.17538 12.8295 8.45392 13.0478 8.14243 13.6313C7.83094 14.2148 8.04738 14.9425 8.62586 15.2567L18.936 20.8566C19.2881 21.0478 19.7119 21.0478 20.064 20.8566L30.3741 15.2567C30.9526 14.9425 31.1691 14.2148 30.8576 13.6313Z" fill="#306838"/>
</svg>
