<svg width="28" height="28" viewBox="0 0 28 28" fill="none" xmlns="http://www.w3.org/2000/svg">
<path fill-rule="evenodd" clip-rule="evenodd" d="M13.7626 17.8662L17.7201 13.9088C18.813 12.8158 19.084 11.1461 18.3927 9.76353L18.1685 9.31507C17.4772 7.93255 17.7482 6.2628 18.8412 5.16981L23.7481 0.262951C24.0987 -0.0876503 24.6671 -0.0876503 25.0177 0.262951C25.0859 0.331183 25.1427 0.409968 25.1859 0.496275L27.1681 4.46074C28.6845 7.49361 28.0901 11.1566 25.6924 13.5543L14.9213 24.3254C12.3114 26.9353 8.45095 27.8466 4.94941 26.6794L0.614114 25.2343C0.143733 25.0775 -0.110479 24.5691 0.0463142 24.0987C0.0903883 23.9665 0.164642 23.8464 0.263194 23.7478L5.02366 18.9873C6.11665 17.8944 7.7864 17.6234 9.16892 18.3147L9.61738 18.5389C10.9999 19.2302 12.6697 18.9592 13.7626 17.8662Z" fill="#306838"/>
</svg>
