<svg width="76" height="74" viewBox="0 0 76 74" fill="none" xmlns="http://www.w3.org/2000/svg">
<path fill-rule="evenodd" clip-rule="evenodd" d="M1 37C1 17.1177 17.5655 1 38 1C58.4345 1 75 17.1177 75 37C75 56.8823 58.4345 73 38 73C17.5655 73 1 56.8823 1 37ZM29.5909 22.8286C30.6316 22.244 31.9138 22.244 32.9545 22.8286L53.1364 34.1657C54.1771 34.7503 54.8182 35.8307 54.8182 37C54.8182 38.1692 54.1771 39.2496 53.1364 39.8342L32.9545 51.1713C31.9138 51.7559 30.6316 51.7559 29.5909 51.1713C28.5502 50.5867 27.9091 49.5063 27.9091 48.337V25.6629C27.9091 24.4937 28.5502 23.4133 29.5909 22.8286Z" fill="white" fill-opacity="0.86" stroke="#8B9D83" stroke-width="2" stroke-linejoin="round"/>
</svg>
